<svg xmlns="http://www.w3.org/2000/svg" width="101" height="22" viewBox="0 0 101 22" fill="none">
<g clip-path="url(#clip0_5430_9939)">
<path d="M-0.105955 3.35873H4.69393C4.70779 3.35873 4.72109 3.35322 4.73089 3.34342C4.74069 3.33362 4.7462 3.32032 4.7462 3.30646V0.355477C4.7462 0.343494 4.75087 0.332002 4.75917 0.323529C4.76748 0.315055 4.77875 0.310295 4.7905 0.310295C6.64856 0.312067 8.38081 0.311181 9.98727 0.307637C10.9104 0.305866 11.5801 0.419263 12.1879 0.999537C14.3129 3.02651 15.992 4.6309 17.2252 5.81271C17.7833 6.34692 17.9136 7.06628 17.8843 7.88841C17.8837 7.90259 17.8831 11.5097 17.8825 18.7099C17.8825 18.7167 17.8812 18.7235 17.8786 18.7299C17.8759 18.7362 17.8721 18.742 17.8672 18.7468C17.8624 18.7517 17.8566 18.7555 17.8503 18.7582C17.8439 18.7608 17.8371 18.7621 17.8303 18.7621H13.0268C13.0127 18.7621 12.9992 18.7678 12.9893 18.778C12.9793 18.7881 12.9737 18.8018 12.9737 18.8162V21.7592C12.9737 21.7726 12.9684 21.7854 12.9589 21.7949C12.9494 21.8044 12.9366 21.8097 12.9232 21.8097C12.6533 21.8079 10.7929 21.8085 7.34193 21.8115C6.61784 21.812 6.00656 21.5746 5.50809 21.0992C3.7711 19.4413 2.1174 17.8626 0.546964 16.3631C0.282371 16.1109 0.0797923 15.7843 -0.0607729 15.3833C-0.14523 15.1435 -0.179781 14.7587 -0.164425 14.2289C-0.163834 14.2041 -0.163539 10.5999 -0.163539 3.41631C-0.163539 3.40875 -0.16205 3.40126 -0.159156 3.39428C-0.156262 3.38729 -0.15202 3.38094 -0.146673 3.37559C-0.141326 3.37025 -0.134978 3.36601 -0.127992 3.36311C-0.121005 3.36022 -0.113517 3.35873 -0.105955 3.35873ZM5.19447 3.37379C5.96876 3.53237 6.60928 3.82561 7.16032 4.39702C7.33041 4.57361 7.5764 4.98143 7.89829 5.62047C10.6375 11.0694 12.2939 14.3594 12.8674 15.4904C12.9341 15.6216 13.0201 15.6901 13.1252 15.696C13.4004 15.7119 13.9036 15.7146 14.6348 15.704C14.6504 15.7037 14.6652 15.6974 14.6762 15.6863C14.6871 15.6752 14.6933 15.6602 14.6933 15.6446C14.6927 12.8049 14.6927 9.12456 14.6933 4.60344C14.6933 3.82029 14.1298 3.35518 13.3786 3.35696C9.30335 3.36877 6.57621 3.36582 5.19713 3.3481C5.19418 3.3485 5.19145 3.34988 5.18937 3.35202C5.1873 3.35416 5.18601 3.35693 5.1857 3.3599C5.18539 3.36286 5.18609 3.36584 5.18768 3.36836C5.18927 3.37088 5.19167 3.37279 5.19447 3.37379ZM12.513 18.7418C11.708 18.6083 11.0448 18.2536 10.5233 17.6778C10.1946 17.3154 10.0006 16.8477 9.70467 16.2621C8.43131 13.7425 6.83962 10.5727 4.92958 6.75267C4.8029 6.4993 4.69748 6.40273 4.42284 6.40539C4.08915 6.40952 3.6394 6.41041 3.07359 6.40805C3.06898 6.40793 3.0644 6.40876 3.0601 6.41049C3.05581 6.41221 3.0519 6.41481 3.0486 6.41811C3.04529 6.42141 3.04267 6.42536 3.04088 6.42972C3.03908 6.43407 3.03816 6.43876 3.03816 6.44348C3.03934 6.72461 3.03934 10.3882 3.03816 17.4341C3.03816 17.6822 3.05971 17.8647 3.10283 17.9816C3.25078 18.3847 3.61932 18.6709 4.04544 18.7409C4.12695 18.7545 4.36378 18.761 4.75595 18.7604C8.15727 18.7556 10.7412 18.7571 12.5077 18.7648C12.5109 18.7648 12.5141 18.7635 12.5165 18.7612C12.519 18.759 12.5206 18.7558 12.521 18.7524V18.7515C12.521 18.7491 12.5202 18.7467 12.5187 18.7449C12.5173 18.7431 12.5152 18.742 12.513 18.7418Z" fill="#1A1A1A" fill-opacity="0.65"/>
<path d="M78.0324 4.10354C81.2979 4.10974 84.5882 5.27561 85.623 8.7041C85.8456 9.44177 85.9564 10.2329 85.9552 11.0775C85.9534 11.9214 85.8397 12.712 85.6141 13.4491C84.5669 16.874 81.2722 18.0266 78.0059 18.0204C74.7404 18.0142 71.4501 16.8492 70.4153 13.4207C70.1927 12.683 70.0822 11.8919 70.084 11.0473C70.0852 10.2028 70.1986 9.41194 70.4242 8.67486C71.4714 5.2508 74.7669 4.09734 78.0324 4.10354ZM73.4673 10.9924C73.4558 11.7277 73.5417 12.4444 73.8075 13.1301C74.4657 14.8258 76.2978 15.4034 77.9509 15.4282C79.604 15.4539 81.453 14.933 82.1626 13.2577C82.4487 12.5809 82.5568 11.8668 82.5674 11.1306C82.5789 10.3953 82.493 9.6786 82.2272 8.99291C81.569 7.29726 79.7378 6.71965 78.0838 6.69484C76.4307 6.66915 74.5827 7.19007 73.8731 8.86533C73.586 9.54217 73.4788 10.2562 73.4673 10.9924Z" fill="#1A1A1A" fill-opacity="0.65"/>
<path d="M91.0997 13.4484C91.1117 13.4484 91.1232 13.4533 91.1317 13.4619C91.1401 13.4706 91.1449 13.4823 91.1449 13.4945C91.1493 14.7321 91.9334 15.4125 93.0815 15.6322C94.1278 15.8324 96.9902 15.9574 97.3463 14.4761C97.5111 13.7904 97.2072 13.2208 96.5835 12.8983C96.0331 12.6136 95.4209 12.4069 94.747 12.2781C94.2521 12.1837 93.4367 12.0174 92.301 11.7794C91.5834 11.6288 90.9101 11.4162 90.2811 11.1415C88.9026 10.54 88.0628 9.56548 88.1177 7.99121C88.1886 5.95538 89.7974 4.84887 91.6056 4.41388C93.4412 3.97152 95.2384 3.99042 96.9972 4.47058C98.9206 4.99593 100.33 6.33189 100.316 8.41911C100.316 8.42597 100.315 8.43277 100.312 8.43911C100.309 8.44545 100.305 8.45121 100.301 8.45606C100.296 8.46092 100.29 8.46477 100.284 8.4674C100.277 8.47002 100.27 8.47137 100.264 8.47137H97.1239C97.1087 8.47128 97.094 8.46566 97.0826 8.45556C97.0712 8.44546 97.0638 8.43156 97.0619 8.41645C97.0259 8.14359 96.9925 7.9478 96.9618 7.82909C96.5401 6.19546 94.3794 6.14496 93.0718 6.38593C92.5482 6.4825 91.858 6.71461 91.5923 7.16731C91.3097 7.65013 91.3947 8.30394 91.8394 8.65564C92.3223 9.03659 92.9929 9.23149 93.5962 9.3564C94.5619 9.55485 95.4962 9.75093 96.3992 9.94465C98.0284 10.2937 100.187 10.9555 100.689 12.7477C100.884 13.4452 100.885 14.1631 100.692 14.9013C99.9739 17.6282 96.3461 18.0517 94.0533 18.0153C91.198 17.9693 87.8245 17.0284 87.7793 13.4927C87.7793 13.481 87.7839 13.4697 87.792 13.4614C87.8001 13.4531 87.8112 13.4484 87.8227 13.4484H91.0997Z" fill="#1A1A1A" fill-opacity="0.65"/>
<path d="M23.1367 17.6179V4.50278C23.1367 4.49502 23.1398 4.48759 23.1453 4.48211C23.1508 4.47662 23.1582 4.47354 23.166 4.47354H26.5023C26.5068 4.47358 26.5112 4.47463 26.5152 4.47663C26.5192 4.47862 26.5226 4.48151 26.5253 4.48506L33.7137 13.7074C33.7174 13.7122 33.7225 13.7157 33.7283 13.7174C33.7341 13.7192 33.7403 13.7191 33.7461 13.7171C33.7518 13.7152 33.7568 13.7115 33.7604 13.7066C33.7639 13.7017 33.7659 13.6958 33.7659 13.6897V4.50189C33.7659 4.49414 33.769 4.4867 33.7745 4.48122C33.78 4.47574 33.7874 4.47266 33.7952 4.47266H36.8259C36.8336 4.47266 36.8411 4.47574 36.8465 4.48122C36.852 4.4867 36.8551 4.49414 36.8551 4.50189V17.6161C36.8551 17.6238 36.852 17.6313 36.8465 17.6368C36.8411 17.6422 36.8336 17.6453 36.8259 17.6453H33.408C33.4036 17.6453 33.3992 17.6442 33.3952 17.6422C33.3912 17.6402 33.3877 17.6374 33.385 17.6338L26.2773 8.51509C26.2736 8.51031 26.2684 8.50681 26.2626 8.50508C26.2568 8.50334 26.2506 8.50346 26.2449 8.5054C26.2391 8.50735 26.2341 8.51103 26.2306 8.51594C26.227 8.52085 26.2251 8.52674 26.225 8.5328V17.6179C26.225 17.6256 26.2219 17.6331 26.2165 17.6385C26.211 17.644 26.2035 17.6471 26.1958 17.6471H23.166C23.1582 17.6471 23.1508 17.644 23.1453 17.6385C23.1398 17.6331 23.1367 17.6256 23.1367 17.6179Z" fill="#1A1A1A" fill-opacity="0.65"/>
<path d="M51.6607 17.6427H41.3513C41.3405 17.6427 41.3301 17.6384 41.3225 17.6307C41.3148 17.6231 41.3105 17.6127 41.3105 17.6019V4.51341C41.3105 4.5026 41.3148 4.49224 41.3225 4.48459C41.3301 4.47695 41.3405 4.47266 41.3513 4.47266H51.6607C51.6715 4.47266 51.6819 4.47695 51.6895 4.48459C51.6972 4.49224 51.7014 4.5026 51.7014 4.51341V6.82476C51.7014 6.83557 51.6972 6.84593 51.6895 6.85358C51.6819 6.86122 51.6715 6.86551 51.6607 6.86551H44.4954C44.4846 6.86551 44.4742 6.86981 44.4666 6.87745C44.4589 6.88509 44.4547 6.89546 44.4547 6.90626V9.78017C44.4547 9.79098 44.4589 9.80135 44.4666 9.80899C44.4742 9.81663 44.4846 9.82092 44.4954 9.82092H51.6058C51.6166 9.82092 51.6269 9.82522 51.6346 9.83286C51.6422 9.8405 51.6465 9.85087 51.6465 9.86168V12.119C51.6465 12.1298 51.6422 12.1402 51.6346 12.1478C51.6269 12.1554 51.6166 12.1597 51.6058 12.1597H44.4972C44.4864 12.1597 44.476 12.164 44.4684 12.1717C44.4607 12.1793 44.4564 12.1897 44.4564 12.2005V15.2117C44.4564 15.2225 44.4607 15.2329 44.4684 15.2405C44.476 15.2482 44.4864 15.2525 44.4972 15.2525H51.6607C51.6715 15.2525 51.6819 15.2568 51.6895 15.2644C51.6972 15.272 51.7014 15.2824 51.7014 15.2932V17.6019C51.7014 17.6127 51.6972 17.6231 51.6895 17.6307C51.6819 17.6384 51.6715 17.6427 51.6607 17.6427Z" fill="#1A1A1A" fill-opacity="0.65"/>
<path d="M68.7073 17.6035C68.7105 17.607 68.7127 17.6113 68.7135 17.6159C68.7143 17.6205 68.7138 17.6253 68.712 17.6295C68.7102 17.6338 68.7072 17.6374 68.7034 17.6399C68.6996 17.6423 68.6951 17.6435 68.6905 17.6434H64.9342C64.908 17.6434 64.882 17.638 64.8579 17.6275C64.8339 17.6169 64.8122 17.6015 64.7943 17.5823L60.1503 12.5317C60.1445 12.5252 60.1373 12.5201 60.1292 12.5166C60.1211 12.5131 60.1123 12.5113 60.1033 12.5113H58.9331C58.9183 12.5113 58.9041 12.5172 58.8936 12.5276C58.8831 12.5381 58.8772 12.5523 58.8772 12.5671V17.5973C58.8772 17.61 58.8722 17.6222 58.8632 17.6311C58.8543 17.6401 58.8421 17.6452 58.8294 17.6452H55.8005C55.7819 17.6452 55.7641 17.6379 55.751 17.6249C55.7378 17.612 55.7305 17.5944 55.7305 17.5761V4.49286C55.7305 4.48722 55.7327 4.48181 55.7367 4.47783C55.7407 4.47384 55.7461 4.4716 55.7517 4.4716C58.5512 4.47219 60.7684 4.47189 62.4032 4.47071C63.3989 4.46983 64.2893 4.53007 65.208 4.84988C66.3251 5.2388 67.2093 5.98297 67.5326 7.12314C67.8746 8.32621 67.7766 9.46343 67.2385 10.5348C66.6308 11.7432 65.1991 12.3802 63.8782 12.4546C63.8692 12.4551 63.8605 12.4581 63.8532 12.4634C63.8459 12.4687 63.8403 12.476 63.837 12.4844C63.8337 12.4929 63.833 12.502 63.8348 12.5109C63.8366 12.5197 63.8409 12.5279 63.8472 12.5343L68.7073 17.6035ZM58.8888 6.78472L58.8693 10.3532C58.8691 10.3576 58.8699 10.3619 58.8715 10.366C58.8731 10.3701 58.8755 10.3738 58.8785 10.3769C58.8816 10.3801 58.8853 10.3826 58.8893 10.3843C58.8933 10.386 58.8977 10.3869 58.902 10.3869L62.5795 10.4055C63.0898 10.4082 63.5801 10.2409 63.9426 9.9404C64.3051 9.63985 64.5101 9.23066 64.5125 8.80284L64.5143 8.39532C64.5155 8.18344 64.4669 7.97337 64.3713 7.77709C64.2757 7.58081 64.135 7.40218 63.9571 7.25138C63.7792 7.10059 63.5677 6.98059 63.3347 6.89824C63.1017 6.81589 62.8517 6.7728 62.599 6.77143L58.9215 6.75283C58.913 6.75283 58.9048 6.75616 58.8987 6.76211C58.8925 6.76807 58.889 6.77618 58.8888 6.78472Z" fill="#1A1A1A" fill-opacity="0.65"/>
</g>
<defs>
<clipPath id="clip0_5430_9939">
<rect width="101" height="21.148" fill="white" transform="translate(0 0.425781)"/>
</clipPath>
</defs>
</svg>