<svg xmlns="http://www.w3.org/2000/svg" fill="none" viewBox="0 0 125 17" height="17" width="125">
<path fill="black" d="M28.0531 0.00449904H27.7833C26.3633 0.00224927 25.211 1.17319 25.211 2.61886V8.46561C25.211 9.63332 24.2632 10.5789 23.1353 10.5789C22.4652 10.5789 21.7961 10.2356 21.399 9.65906L15.5333 1.1304C15.0467 0.422221 14.255 0 13.3978 0C12.0609 0 10.8577 1.15742 10.8577 2.58619V8.46669C10.8577 9.6344 9.91766 10.5802 8.78196 10.5802C8.10947 10.5802 7.44164 10.2366 7.04452 9.66014L0.481052 0.117095C0.332869 -0.0979517 0 0.00787481 0 0.271335V5.37045C0 5.6283 0.0774068 5.87838 0.222296 6.08994L6.68076 15.4812C7.06216 16.0363 7.62523 16.4484 8.27435 16.5981C9.89875 16.974 11.394 15.7008 11.394 14.0783V8.20104C11.394 7.03354 12.3229 6.08778 13.4697 6.08778H13.4731C14.1643 6.08778 14.8123 6.43108 15.2092 7.00758L21.0749 15.5353C21.5626 16.2446 22.3137 16.6656 23.2093 16.6656C24.5761 16.6656 25.7473 15.5072 25.7473 14.0794V8.19996C25.7473 7.03246 26.6763 6.08669 27.823 6.08669H28.0521C28.1957 6.08669 28.3119 5.96837 28.3119 5.82213V0.26796C28.3119 0.121596 28.1957 0.0033751 28.0521 0.0033751L28.0531 0.00449904ZM61.7264 4.40452H60.2909C60.1449 4.40452 60.0265 4.52499 60.0265 4.67363V16.3943C60.0265 16.5429 60.1449 16.6634 60.2909 16.6634H61.7264C61.8723 16.6634 61.9907 16.5429 61.9907 16.3943V4.67363C61.9907 4.52499 61.8723 4.40452 61.7264 4.40452ZM60.2433 0.00112558H61.7729C61.9189 0.00112558 62.037 0.121595 62.037 0.27021V2.18426C62.037 2.33288 61.9189 2.45335 61.7729 2.45335H60.2433C60.0973 2.45335 59.9789 2.33288 59.9789 2.18426V0.27021C59.9789 0.121595 60.0973 0.00112558 60.2433 0.00112558ZM70.3181 4.07127C68.7048 4.07127 67.5357 4.64209 66.7872 5.47645C66.5471 5.72414 66.1323 5.55065 66.1323 5.2028V4.67363C66.1323 4.52499 66.014 4.40452 65.868 4.40452H64.4569C64.311 4.40452 64.1926 4.52499 64.1926 4.67363V16.3943C64.1926 16.5429 64.311 16.6634 64.4569 16.6634H65.8693C66.0152 16.6634 66.1336 16.5429 66.1336 16.3943V8.97461C66.1336 6.40296 66.6244 5.83208 69.314 5.83208C72.0035 5.83208 72.447 6.28485 72.447 8.8552V16.3932C72.447 16.5418 72.5653 16.6623 72.7113 16.6623H74.1468C74.2928 16.6623 74.4111 16.5418 74.4111 16.3932V8.30682C74.4111 5.37845 72.7744 4.069 70.3192 4.069V4.07127H70.3181ZM84.9824 5.64301C85.2223 5.89071 85.637 5.71743 85.637 5.36937V0.271335C85.637 0.122721 85.7554 0.00224952 85.9013 0.00224952H87.3135C87.4595 0.00224952 87.5778 0.122721 87.5778 0.271335V16.3954C87.5778 16.544 87.4595 16.6645 87.3135 16.6645H85.9013C85.7554 16.6645 85.637 16.544 85.637 16.3954V15.6997C85.6515 15.3438 85.2278 15.1727 84.9824 15.426C84.3044 16.2829 82.9951 16.9965 81.2411 16.9965C78.1557 16.9965 76.1441 14.7595 76.1441 10.5936C76.1441 6.19031 78.3879 4.07127 81.3107 4.07127C83.0648 4.07127 84.3277 4.78616 84.9824 5.64301ZM78.2706 10.5451C78.2706 14.5681 78.7616 15.1636 81.9654 15.1636C85.146 15.1636 85.637 14.5681 85.637 10.5451C85.637 6.52237 85.1691 5.90304 81.9654 5.90304C78.7616 5.90304 78.2706 6.52237 78.2706 10.5451ZM95.7859 9.78518L93.4724 9.38108C91.7649 9.07131 91.4606 8.54781 91.4606 7.64271C91.484 6.40404 91.9517 5.78601 94.2199 5.78601C96.3443 5.78601 97.0244 6.42546 97.1704 7.80582C97.1848 7.9421 97.2976 8.0468 97.4326 8.0468H98.836C98.9862 8.0468 99.109 7.91852 99.1001 7.76428C98.9641 5.39424 96.8332 4.07013 94.2907 4.07013C91.4375 4.07013 89.5443 5.61706 89.5443 7.83178C89.5443 9.85505 91.0879 10.7366 92.9348 11.0935L95.4839 11.5698C96.8873 11.832 97.355 12.3084 97.355 13.2124C97.355 14.6648 96.864 15.2841 94.4555 15.2841C92.0469 15.2841 91.3812 14.577 91.2263 13.1438C91.2118 13.0075 91.099 12.9039 90.9641 12.9039H89.5519C89.4036 12.9039 89.2832 13.0289 89.2866 13.1797C89.3539 15.7334 91.6277 16.9989 94.3372 16.9989C97.2832 16.9989 99.317 15.4518 99.317 13.1179C99.317 11.071 97.7732 10.1421 95.7859 9.78518ZM106.006 15.2367C108.625 15.2367 109.116 14.6661 109.116 12.0944V4.677C109.116 4.52839 109.235 4.40792 109.38 4.40792H110.816C110.962 4.40792 111.08 4.52839 111.08 4.677V16.3975C111.08 16.5462 110.962 16.6666 110.816 16.6666H109.38C109.235 16.6666 109.116 16.5462 109.116 16.3975V15.8866C109.111 15.5227 108.74 15.3414 108.485 15.5961C107.737 16.4291 106.568 17 105.001 17C102.592 17 100.956 15.6906 100.956 12.762V4.67588C100.956 4.52726 101.074 4.40679 101.22 4.40679H102.656C102.801 4.40679 102.92 4.52726 102.92 4.67588V12.2138C102.92 14.7842 103.388 15.2367 106.006 15.2367ZM122.566 4.40452V2.83278C122.566 2.21466 123.058 1.71363 123.665 1.71363H124.734C124.88 1.71363 124.998 1.59316 124.998 1.44454V0.269084C124.998 0.12047 124.88 0 124.734 0H123.993C121.888 0 120.602 1.19008 120.602 3.2381V4.40452H119.046C117.667 4.40677 116.584 4.59932 115.862 5.47645C115.597 5.73192 115.231 5.54048 115.231 5.16905V4.67475C115.231 4.52614 115.112 4.40564 114.966 4.40564H113.531C113.385 4.40564 113.266 4.52614 113.266 4.67475V16.3954C113.266 16.544 113.385 16.6645 113.531 16.6645H114.966C115.112 16.6645 115.231 16.544 115.231 16.3954V9.04773C115.231 6.61907 115.839 6.04841 118.458 6.04841H120.602V16.3965C120.602 16.5451 120.72 16.6656 120.866 16.6656H122.302C122.448 16.6656 122.566 16.5451 122.566 16.3965V6.04841H124.736C124.882 6.04841 125 5.92791 125 5.7793V4.67588C125 4.52726 124.882 4.40679 124.736 4.40679H122.566V4.40452ZM52.0344 13.6065C52.0854 13.8216 52.2745 13.9736 52.4912 13.9736H52.4922C52.7079 13.9736 52.896 13.8237 52.9478 13.6111L56.2402 0.204924C56.2699 0.0844535 56.3761 0 56.4977 0H58.1412C58.3169 0 58.4453 0.168884 58.4011 0.342267L54.2594 16.4685C54.2297 16.5823 54.129 16.6623 54.0127 16.6623H51.0812C50.9628 16.6623 50.86 16.5801 50.83 16.4642L47.3896 2.97462C47.3367 2.7641 47.1497 2.61661 46.9351 2.61661H46.9053C46.6918 2.61661 46.505 2.7641 46.4508 2.97462L43.0114 16.4642C42.9815 16.5812 42.8786 16.6623 42.7603 16.6623H39.8287C39.7125 16.6623 39.6107 16.5823 39.582 16.4685L35.4404 0.342267C35.3962 0.168884 35.5245 0 35.7005 0H37.3438C37.4653 0 37.5716 0.0844535 37.6013 0.204924L40.8926 13.6111C40.9444 13.8237 41.1314 13.9736 41.3482 13.9736C41.5649 13.9736 41.754 13.8216 41.805 13.6065L44.9688 0.207174C44.9977 0.0855782 45.1037 0 45.2265 0H48.6139C48.7367 0 48.8427 0.0855782 48.8716 0.207174L52.0344 13.6065Z" clip-rule="evenodd" fill-rule="evenodd" opacity="0.62"></path>
</svg>
