<svg width="108" height="27" viewBox="0 0 108 27" fill="none" xmlns="http://www.w3.org/2000/svg">
<g clip-path="url(#clip0_5430_9929)">
<path d="M15.9678 19.4184V20.5729C15.9678 21.133 15.6559 21.4472 15.0929 21.4472H0.874915C0.314385 21.4472 0 21.1354 0 20.5729V19.4184C0 18.8582 0.311948 18.544 0.874915 18.544H15.0954C15.6559 18.544 15.9703 18.8558 15.9703 19.4184H15.9678ZM14.9978 10.6846L11.2911 8.54624C11.1692 8.47563 11.1692 8.30267 11.2911 8.23206L14.9978 6.09368C15.4171 5.85256 15.5584 5.31675 15.3171 4.90028L14.7395 3.90171C14.4983 3.4828 13.9646 3.34154 13.5453 3.58266L9.83855 5.72105C9.71673 5.79168 9.56561 5.70399 9.56561 5.56517V1.28353C9.56561 0.801298 9.17321 0.40918 8.69065 0.40918H7.53549C7.05295 0.40918 6.66057 0.801298 6.66057 1.28353V5.56274C6.66057 5.70156 6.50947 5.78924 6.38762 5.71861L2.68081 3.58022C2.26162 3.33911 1.7279 3.4828 1.48663 3.89928L0.909033 4.89784C0.667763 5.31675 0.811552 5.85013 1.2283 6.09125L4.93511 8.22961C5.05697 8.3003 5.05697 8.47318 4.93511 8.54379L1.2283 10.6822C0.809115 10.9233 0.667763 11.4567 0.909033 11.8756L1.48663 12.8742C1.7279 13.2931 2.26162 13.4343 2.68081 13.1932L6.38762 11.0549C6.50947 10.9842 6.66057 11.0719 6.66057 11.2107V15.4899C6.66057 15.9721 7.05295 16.3643 7.53549 16.3643H8.69065C9.17321 16.3643 9.56561 15.9721 9.56561 15.4899V11.2107C9.56561 11.0719 9.71673 10.9842 9.83855 11.0549L13.5453 13.1932C13.9646 13.4343 14.4983 13.2906 14.7395 12.8742L15.3171 11.8756C15.5584 11.4567 15.4146 10.9233 14.9978 10.6822V10.6846Z" fill="#1A1A1A" fill-opacity="0.65"></path>
<path d="M24.6799 11.2314C25.4428 10.0259 27.0171 9.19043 28.6426 9.19043C31.9644 9.19043 34.5989 11.945 34.5989 15.462C34.5989 18.9788 31.9669 21.7334 28.6426 21.7334C27.0171 21.7334 25.4428 20.898 24.6799 19.6924V26.412C24.6799 26.5118 24.5995 26.5923 24.4996 26.5923H21.9578C21.8578 26.5923 21.7773 26.5118 21.7773 26.412V9.66538C21.7773 9.56557 21.8578 9.48514 21.9578 9.48514H24.4996C24.5995 9.48514 24.6799 9.56557 24.6799 9.66538V11.2314ZM28.126 11.7477C26.1081 11.7477 24.5581 13.3479 24.5581 15.462C24.5581 17.5783 26.1081 19.1761 28.126 19.1761C30.1683 19.1761 31.7183 17.5783 31.7183 15.462C31.7183 13.3455 30.1683 11.7477 28.126 11.7477Z" fill="#1A1A1A" fill-opacity="0.65"></path>
<path d="M45.7324 17.2578C46.1321 17.5159 47.1824 18.1906 47.5699 18.439C47.6527 18.4926 47.6771 18.5998 47.6284 18.685C46.4586 20.6554 44.4821 21.7294 42.2278 21.7294C38.8549 21.7294 36.0254 18.9992 36.0254 15.458C36.0254 11.9167 38.8549 9.18652 42.1791 9.18652C45.6714 9.18652 48.1378 11.8875 48.089 15.9913C48.089 16.0912 48.0062 16.1716 47.9062 16.1716H38.7574C39.0523 18.0664 40.5048 19.2452 42.2278 19.2452C43.8314 19.2452 44.7356 18.5437 45.4789 17.3162C45.5325 17.2286 45.647 17.1994 45.7324 17.2554V17.2578ZM38.8792 14.1793H45.2035C45.0061 12.8276 43.9484 11.6464 42.1766 11.6464C40.6266 11.6464 39.3448 12.6303 38.8792 14.1793Z" fill="#1A1A1A" fill-opacity="0.65"></path>
<path d="M57.3166 9.65781C57.3435 9.56764 57.2972 9.47511 57.2118 9.43861C56.9535 9.33143 56.6513 9.26074 56.1785 9.26074C54.6773 9.26074 53.4709 10.1693 52.8811 11.3505V9.66263C52.8811 9.56281 52.8007 9.48239 52.7008 9.48239H50.1589C50.0589 9.48239 49.9785 9.56281 49.9785 9.66263V21.2532C49.9785 21.3531 50.0589 21.4335 50.1589 21.4335H52.7008C52.8007 21.4335 52.8811 21.3531 52.8811 21.2532V15.3349C52.8811 13.3914 54.0875 12.1128 55.8349 12.1128C56.0396 12.1128 56.2346 12.1274 56.4222 12.1566C56.5148 12.1713 56.6026 12.1177 56.627 12.03C56.7658 11.555 57.1802 10.1254 57.3166 9.65781Z" fill="#1A1A1A" fill-opacity="0.65"></path>
<path d="M57.7683 18.4001L59.9446 17.6109C60.0397 17.5769 60.142 17.628 60.1762 17.7206C60.5685 18.7581 61.3581 19.4668 62.4792 19.4668C63.3639 19.4668 64.1778 18.9262 64.1778 17.9422C64.1778 15.7039 58.3191 17.2042 58.3191 12.925C58.3191 10.8597 60.0664 9.18652 62.5279 9.18652C64.5458 9.18652 66.0593 10.2849 66.6296 11.8631C66.6637 11.9581 66.6076 12.0653 66.5101 12.0945L64.3192 12.774C64.2266 12.8032 64.1315 12.7521 64.0974 12.6595C63.8074 11.8583 63.2371 11.4467 62.4304 11.4467C61.6676 11.4467 61.0267 11.9386 61.0267 12.7253C61.0267 14.8637 66.9342 13.3902 66.9342 17.7668C66.9342 20.0782 64.8164 21.727 62.406 21.727C60.2298 21.727 58.2849 20.519 57.6586 18.6217C57.6294 18.5292 57.6806 18.4293 57.7707 18.3976L57.7683 18.4001Z" fill="#1A1A1A" fill-opacity="0.65"></path>
<path d="M74.4907 9.18652C77.9368 9.18652 80.8418 11.9167 80.8418 15.458C80.8418 18.9992 77.9368 21.7294 74.4907 21.7294C71.0446 21.7294 68.1641 18.9992 68.1641 15.458C68.1641 11.9167 71.0446 9.18652 74.4907 9.18652ZM74.4907 19.1746C76.533 19.1746 78.083 17.5769 78.083 15.4604C78.083 13.344 76.533 11.7462 74.4907 11.7462C72.4728 11.7462 70.9228 13.3464 70.9228 15.4604C70.9228 17.5769 72.4728 19.1746 74.4907 19.1746Z" fill="#1A1A1A" fill-opacity="0.65"></path>
<path d="M87.9819 11.7794C86.3807 11.7794 85.3228 13.0093 85.3228 14.9017V21.2633C85.3228 21.3631 85.2426 21.4435 85.1428 21.4435H82.6007C82.5009 21.4435 82.4199 21.3631 82.4199 21.2633V9.67264C82.4199 9.57282 82.5009 9.49248 82.6007 9.49248H85.1428C85.2426 9.49248 85.3228 9.57282 85.3228 9.67264V11.0901C86.1099 9.98445 87.3405 9.19531 89.0153 9.19531C91.7226 9.19531 93.2968 11.0658 93.2968 13.5232V21.2609C93.2968 21.3607 93.2166 21.4411 93.1168 21.4411H90.5747C90.4749 21.4411 90.3947 21.3607 90.3947 21.2609V14.3099C90.3947 12.7609 89.5095 11.7769 87.9819 11.7769V11.7794Z" fill="#1A1A1A" fill-opacity="0.65"></path>
<path d="M107.674 9.66385V21.2545C107.674 21.3544 107.594 21.4347 107.493 21.4347H104.952C104.852 21.4347 104.771 21.3544 104.771 21.2545V19.6885C104.033 20.8941 102.459 21.7294 100.833 21.7294C97.5115 21.7294 94.877 18.9748 94.877 15.458C94.877 11.9411 97.5115 9.18652 100.833 9.18652C102.459 9.18652 104.033 10.0243 104.771 11.2275V9.6614C104.771 9.56158 104.852 9.48123 104.952 9.48123H107.493C107.594 9.48123 107.674 9.56158 107.674 9.6614V9.66385ZM101.323 19.1746C103.366 19.1746 104.915 17.5769 104.915 15.4604C104.915 13.344 103.366 11.7462 101.323 11.7462C99.305 11.7462 97.7553 13.3464 97.7553 15.4604C97.7553 17.5769 99.305 19.1746 101.323 19.1746Z" fill="#1A1A1A" fill-opacity="0.65"></path>
</g>
<defs>
<clipPath id="clip0_5430_9929">
<rect width="108" height="27" fill="white"></rect>
</clipPath>
</defs>
</svg>
