<svg xmlns="http://www.w3.org/2000/svg" fill="none" viewBox="0 0 65 19" height="19" width="65">
<g clip-path="url(#clip0_9040_7574)" opacity="0.79">
<path fill="#4A4A4A" d="M14.9894 4.66862C17.7252 4.66862 19.2911 6.26238 19.2911 9.0388V18.7793H16.7062V10.2924C16.7062 7.66127 15.6325 6.95844 14.1956 6.95844C12.2154 6.95844 10.9374 9.0388 10.9374 12.6025V18.7793H8.3525V10.2924C8.3525 7.83022 7.40652 6.95844 5.82563 6.95844C3.82919 6.95844 2.58259 9.20773 2.58259 12.6025V18.7793H0V4.88488H2.58491V7.06995C3.46241 5.47733 4.88893 4.66637 6.74956 4.66637C8.61019 4.66637 10.1365 5.62938 10.6623 7.32338C11.4365 5.69696 13.0232 4.66524 14.9894 4.66524M38.9965 0.00112633L36.4116 1.58362V4.88601H33.9811V7.17921H36.4116V14.3843C36.4116 17.3184 37.9414 19 40.6099 19C41.3656 19 42.2279 18.768 42.6377 18.563V16.1774C41.8925 16.5728 41.2738 16.7068 40.7492 16.7068C39.6198 16.7068 38.9965 15.9488 38.9965 14.5713V7.17695H42.6377V4.88488H38.9965V0V0.00112633ZM63.9402 4.66975C62.4313 4.66975 60.7541 5.42214 59.9242 7.07558V4.88488H57.3393V18.7793H59.9242V12.598C59.9242 9.36543 61.1975 6.95844 63.7441 6.95844C64.3813 6.95844 65 7.14203 65 7.14203V4.75535C64.6501 4.69562 64.2955 4.66771 63.9402 4.66975ZM33.2927 15.3101C31.9046 17.8748 30.1751 18.9978 27.2965 18.9978C25.2386 18.9978 23.6182 18.2994 22.4819 16.9208C21.3548 15.4904 20.8081 13.8268 20.8081 11.8343C20.8081 9.84068 21.3699 8.1546 22.4819 6.77485C23.6275 5.35793 25.2026 4.67088 27.2965 4.67088C29.3916 4.67088 30.9261 5.32415 32.0531 6.60816C33.2185 7.87752 33.7861 9.40145 33.7861 11.2667V12.4381H23.4557C23.494 14.9835 25.0644 16.7068 27.2977 16.7068C29.1154 16.7068 30.2064 16.013 31.0248 14.3246L33.2927 15.3124V15.3101ZM23.6182 10.1437H31.0607C30.8448 8.10054 29.2361 6.95844 27.3 6.95844C25.3616 6.95844 23.9873 8.08477 23.6206 10.1437H23.6182ZM55.3684 15.3101C53.979 17.8748 52.2496 18.9978 49.3721 18.9978C47.3131 18.9978 45.6927 18.2994 44.5563 16.9208C43.4293 15.4904 42.8826 13.8268 42.8826 11.8343C42.8826 9.84068 43.4456 8.1546 44.5563 6.77485C45.7019 5.35793 47.2771 4.67088 49.371 4.67088C51.4661 4.67088 53.0006 5.32415 54.1276 6.60816C55.2941 7.87752 55.8606 9.40145 55.8606 11.2667V12.4381H45.5302C45.5696 14.9835 47.1389 16.7068 49.3721 16.7068C51.1898 16.7068 52.2809 16.013 53.1004 14.3246L55.3684 15.3124V15.3101ZM45.6927 10.1437H53.1363C52.9193 8.10054 51.3106 6.95844 49.3733 6.95844C47.4361 6.95844 46.0618 8.08477 45.695 10.1437H45.6927Z"></path>
</g>
<defs>
<clipPath id="clip0_9040_7574">
<rect fill="white" height="19" width="65"></rect>
</clipPath>
</defs>
</svg>
