<svg width="81" height="24" viewBox="0 0 81 24" fill="none" xmlns="http://www.w3.org/2000/svg">
<g clip-path="url(#clip0_5200_20066)">
<mask id="mask0_5200_20066" style="mask-type:luminance" maskUnits="userSpaceOnUse" x="0" y="0" width="81" height="24">
<path d="M81 0.0244141H0V23.4117H81V0.0244141Z" fill="white"></path>
</mask>
<g mask="url(#mask0_5200_20066)">
<path fill-rule="evenodd" clip-rule="evenodd" d="M23.3269 11.719C23.3269 18.0197 18.1049 23.1275 11.6635 23.1275C5.22189 23.1275 0 18.0197 0 11.719C0 5.41829 5.22189 0.310547 11.6635 0.310547C18.1049 0.310547 23.3269 5.41829 23.3269 11.719ZM7.09911 5.27054H13.3749C14.95 5.27054 16.227 6.54749 16.227 8.12262V8.37068C16.227 9.94586 14.95 11.2228 13.3749 11.2228H7.09911V5.27054ZM7.09911 13.2075H15.7754C17.145 13.2075 18.2554 14.3178 18.2554 15.6875C18.2554 17.0572 17.145 18.1676 15.7754 18.1676H7.09911V13.2075Z" fill="#1A1A1A" fill-opacity="0.65"></path>
<path d="M31.1016 18.9915V5.68164H37.4776C39.1104 5.68164 40.3546 5.99855 41.2099 6.63235C42.0652 7.25351 42.4929 8.09004 42.4929 9.14223C42.4929 9.85206 42.3243 10.4605 41.9874 10.9676C41.6505 11.4619 41.1969 11.8485 40.6267 12.1274C40.0694 12.3936 39.4604 12.5267 38.7994 12.5267L39.1493 11.8422C39.9139 11.8422 40.6008 11.9817 41.2099 12.2605C41.8189 12.5267 42.2985 12.9197 42.6483 13.4393C43.0112 13.9591 43.1926 14.6056 43.1926 15.3788C43.1926 16.5196 42.7455 17.407 41.8513 18.0408C40.9572 18.6746 39.6288 18.9915 37.8663 18.9915H31.1016ZM33.6286 17.0521H37.7108C38.6569 17.0521 39.3826 16.8999 39.888 16.5958C40.3934 16.2915 40.6461 15.8035 40.6461 15.1316C40.6461 14.4724 40.3934 13.9908 39.888 13.6866C39.3826 13.3697 38.6569 13.2112 37.7108 13.2112H33.4342V11.2908H37.2055C38.0867 11.2908 38.7605 11.1387 39.2271 10.8345C39.7066 10.5302 39.9463 10.0739 39.9463 9.46549C39.9463 8.84435 39.7066 8.38164 39.2271 8.07742C38.7605 7.7732 38.0867 7.62105 37.2055 7.62105H33.6286V17.0521Z" fill="#1A1A1A" fill-opacity="0.65"></path>
<path d="M52.0521 18.9912V16.9377L51.916 16.5004V12.9067C51.916 12.2095 51.7022 11.6708 51.2745 11.2905C50.8469 10.8975 50.1989 10.701 49.3306 10.701C48.7474 10.701 48.1707 10.7898 47.6006 10.9673C47.0433 11.1447 46.5702 11.3919 46.1815 11.7088L45.2289 9.97852C45.7862 9.56023 46.4472 9.24966 47.2118 9.04682C47.9893 8.83129 48.7928 8.72363 49.6222 8.72363C51.1255 8.72363 52.2853 9.07855 53.1018 9.78838C53.9312 10.4855 54.3459 11.5694 54.3459 13.0398V18.9912H52.0521ZM48.7863 19.1243C48.0087 19.1243 47.3284 18.9975 46.7452 18.744C46.1621 18.4779 45.7085 18.1165 45.3845 17.6602C45.0735 17.1912 44.918 16.6651 44.918 16.0821C44.918 15.5116 45.054 14.9982 45.3261 14.5419C45.6113 14.0856 46.0713 13.7243 46.7064 13.4581C47.3414 13.1919 48.1837 13.0588 49.2334 13.0588H52.2465V14.637H49.4084C48.579 14.637 48.0217 14.7701 47.7366 15.0362C47.4515 15.2898 47.309 15.6067 47.309 15.987C47.309 16.418 47.4839 16.7602 47.8338 17.0137C48.1837 17.2672 48.6697 17.394 49.2918 17.394C49.8879 17.394 50.4192 17.2609 50.8857 16.9947C51.3652 16.7285 51.7087 16.3355 51.916 15.8159L52.3242 17.2419C52.091 17.8377 51.6698 18.3003 51.0607 18.6299C50.4645 18.9595 49.7064 19.1243 48.7863 19.1243Z" fill="#1A1A1A" fill-opacity="0.65"></path>
<path d="M60.6705 19.1243C59.8023 19.1243 58.9666 19.0166 58.1629 18.801C57.3723 18.5729 56.7438 18.3003 56.2773 17.9835L57.2103 16.1771C57.6769 16.4687 58.2342 16.7096 58.8822 16.8996C59.5302 17.0898 60.1782 17.1849 60.8262 17.1849C61.5906 17.1849 62.1416 17.0834 62.4782 16.8807C62.8284 16.6778 63.0029 16.4053 63.0029 16.063C63.0029 15.7841 62.8865 15.575 62.6533 15.4356C62.42 15.2835 62.1153 15.1694 61.7394 15.0933C61.3641 15.0173 60.9426 14.9475 60.476 14.8842C60.0225 14.8208 59.5627 14.7384 59.0961 14.637C58.6426 14.5229 58.228 14.3644 57.852 14.1616C57.4761 13.9461 57.1715 13.6609 56.9382 13.306C56.705 12.9511 56.5883 12.482 56.5883 11.8989C56.5883 11.2525 56.7762 10.6947 57.1521 10.2257C57.528 9.74396 58.0528 9.37642 58.7265 9.12289C59.4133 8.85667 60.2233 8.72363 61.1565 8.72363C61.8564 8.72363 62.5626 8.79964 63.2756 8.95178C63.9881 9.10386 64.5779 9.31939 65.0445 9.59823L64.1113 11.4046C63.619 11.113 63.1199 10.9166 62.6145 10.8151C62.1222 10.701 61.6293 10.644 61.1371 10.644C60.3984 10.644 59.8473 10.7517 59.4846 10.9673C59.1349 11.1828 58.9598 11.4552 58.9598 11.7848C58.9598 12.0891 59.0767 12.3173 59.31 12.4693C59.5433 12.6215 59.8473 12.7419 60.2233 12.8307C60.5992 12.9194 61.0139 12.9954 61.4673 13.0588C61.934 13.1095 62.3943 13.1919 62.8478 13.306C63.3013 13.4201 63.716 13.5786 64.0919 13.7813C64.4803 13.9715 64.7918 14.244 65.0251 14.599C65.2584 14.9539 65.3747 15.4165 65.3747 15.987C65.3747 16.6208 65.1803 17.1722 64.7918 17.6412C64.4159 18.1102 63.878 18.4779 63.1781 18.744C62.4782 18.9975 61.6425 19.1243 60.6705 19.1243Z" fill="#1A1A1A" fill-opacity="0.65"></path>
<path d="M67.4709 18.9914V8.83789H69.9008V18.9914H67.4709ZM68.6953 7.16463C68.2424 7.16463 67.8664 7.02518 67.5687 6.74631C67.2832 6.46743 67.1406 6.13151 67.1406 5.73855C67.1406 5.33292 67.2832 4.997 67.5687 4.73081C67.8664 4.45194 68.2424 4.3125 68.6953 4.3125C69.1496 4.3125 69.5188 4.4456 69.8036 4.7118C70.102 4.96532 70.2512 5.28856 70.2512 5.68151C70.2512 6.09985 70.1087 6.45477 69.8232 6.74631C69.5384 7.02518 69.1624 7.16463 68.6953 7.16463Z" fill="#1A1A1A" fill-opacity="0.65"></path>
<path d="M76.2959 19.1243C75.4279 19.1243 74.5922 19.0166 73.7883 18.801C72.9979 18.5729 72.3688 18.3003 71.9023 17.9835L72.8359 16.1771C73.3023 16.4687 73.8592 16.7096 74.5072 16.8996C75.1552 17.0898 75.8032 17.1849 76.4512 17.1849C77.2159 17.1849 77.7667 17.0834 78.1036 16.8807C78.4539 16.6778 78.6287 16.4053 78.6287 16.063C78.6287 15.7841 78.5119 15.575 78.2784 15.4356C78.0455 15.2835 77.7404 15.1694 77.3644 15.0933C76.9891 15.0173 76.5679 14.9475 76.1015 14.8842C75.6479 14.8208 75.1882 14.7384 74.7211 14.637C74.2682 14.5229 73.8531 14.3644 73.4771 14.1616C73.1011 13.9461 72.7967 13.6609 72.5632 13.306C72.3303 12.9511 72.2135 12.482 72.2135 11.8989C72.2135 11.2525 72.4012 10.6947 72.7771 10.2257C73.1531 9.74396 73.6783 9.37642 74.3519 9.12289C75.0384 8.85667 75.8484 8.72363 76.7819 8.72363C77.4819 8.72363 78.1879 8.79964 78.9007 8.95178C79.6135 9.10386 80.2028 9.31939 80.6699 9.59823L79.7364 11.4046C79.2443 11.113 78.7448 10.9166 78.2399 10.8151C77.7472 10.701 77.2544 10.644 76.7623 10.644C76.0239 10.644 75.4731 10.7517 75.1099 10.9673C74.7603 11.1828 74.5848 11.4552 74.5848 11.7848C74.5848 12.0891 74.7022 12.3173 74.9351 12.4693C75.1687 12.6215 75.4731 12.7419 75.8484 12.8307C76.2244 12.9194 76.6388 12.9954 77.0924 13.0588C77.5595 13.1095 78.0199 13.1919 78.4728 13.306C78.9264 13.4201 79.3415 13.5786 79.7168 13.7813C80.1063 13.9715 80.4168 14.244 80.6503 14.599C80.8839 14.9539 81 15.4165 81 15.987C81 16.6208 80.8056 17.1722 80.4168 17.6412C80.0408 18.1102 79.5035 18.4779 78.8035 18.744C78.1036 18.9975 77.2679 19.1243 76.2959 19.1243Z" fill="#1A1A1A" fill-opacity="0.65"></path>
</g>
</g>
<defs>
<clipPath id="clip0_5200_20066">
<rect width="81" height="23.4225" fill="white" transform="translate(0 0.0263672)"></rect>
</clipPath>
</defs>
</svg>
