<svg xmlns="http://www.w3.org/2000/svg" fill="none" viewBox="0 0 127 24" height="24" width="127">
<g clip-path="url(#clip0_5178_13460)">
<mask height="24" width="127" y="0" x="0" maskUnits="userSpaceOnUse" style="mask-type:luminance" id="mask0_5178_13460">
<path fill="white" d="M126.944 0.675781H0V23.6661H126.944V0.675781Z"></path>
</mask>
<g mask="url(#mask0_5178_13460)">
<path fill="#1A1A1A" d="M26.5087 2.18192L29.2111 0.69509C29.3136 0.638479 29.4386 0.713248 29.4386 0.829674V8.52444C29.8082 8.07049 30.2749 7.70626 30.8058 7.45739C31.3356 7.20851 31.9156 7.08248 32.5009 7.08782C35.1157 7.08782 36.6869 8.76904 36.6869 11.621V18.2102C36.6869 18.2957 36.6185 18.364 36.5331 18.364H33.757C33.6716 18.364 33.6032 18.2957 33.6032 18.2102V12.0333C33.6032 10.5325 32.9175 9.66734 31.5674 9.66734C30.4159 9.66734 29.4642 10.4652 29.4642 12.3206V18.2102C29.4642 18.2957 29.3959 18.364 29.3104 18.364H26.5835C26.498 18.364 26.4297 18.2957 26.4297 18.2102V2.31544C26.4297 2.25883 26.4607 2.20756 26.5098 2.18085L26.5087 2.18192Z"></path>
<path fill="#1A1A1A" d="M58.8496 2.1824L61.5958 0.694504C61.6983 0.638962 61.8233 0.713731 61.8233 0.830157L61.7816 8.52599C62.1501 8.07204 62.618 7.70674 63.1478 7.45787C63.6776 7.209 64.2576 7.08296 64.844 7.08937C67.4555 7.08937 69.0267 8.77059 69.0267 11.6225V18.2117C69.0267 18.2972 68.9584 18.3655 68.8729 18.3655H66.1182C66.0328 18.3655 65.9644 18.2972 65.9644 18.2117V12.0348C65.9644 10.5341 65.2787 9.66889 63.9286 9.66889C62.7771 9.66889 61.8254 10.4668 61.8254 12.3221V18.2117C61.8254 18.2972 61.7571 18.3655 61.6716 18.3655H58.9447C58.8603 18.3655 58.7909 18.2972 58.7909 18.2117L58.7695 2.31805C58.7695 2.26144 58.8005 2.20911 58.8496 2.1824Z"></path>
<path fill="#1A1A1A" d="M116.772 2.18192L119.473 0.69509C119.575 0.638479 119.7 0.713248 119.7 0.829674V8.52444C120.07 8.07049 120.537 7.70626 121.066 7.45739C121.596 7.20851 122.177 7.08248 122.763 7.08782C125.374 7.08782 126.948 8.76904 126.948 11.621V18.2102C126.948 18.2957 126.88 18.364 126.795 18.364H124.019C123.933 18.364 123.864 18.2957 123.864 18.2102V12.0333C123.864 10.5325 123.179 9.66734 121.826 9.66734C120.674 9.66734 119.723 10.4652 119.723 12.3206V18.2102C119.723 18.2957 119.654 18.364 119.569 18.364H116.845C116.76 18.364 116.691 18.2957 116.691 18.2102V2.31544C116.691 2.25883 116.722 2.20756 116.772 2.18085V2.18192Z"></path>
<path fill="#1A1A1A" d="M53.1221 8.47978C52.7044 8.02263 52.1939 7.65946 51.6245 7.41593C51.0552 7.17133 50.44 7.0517 49.8205 7.06452C47.3189 7.06452 44.4414 8.90063 44.4414 12.8131C44.4414 16.7257 47.43 18.5607 49.7778 18.5757C50.4079 18.5906 51.0339 18.4678 51.6117 18.2168C52.1896 17.9647 52.7044 17.5898 53.1221 17.1177V18.157C53.1327 18.5126 53.0719 18.8683 52.9415 19.1995C52.8112 19.5316 52.6147 19.8339 52.3648 20.0881C52.1137 20.3423 51.8147 20.5421 51.4846 20.6777C51.1535 20.8123 50.8 20.8796 50.4421 20.8743C49.7991 20.8978 49.1625 20.7311 48.6135 20.3936C48.5152 20.3327 48.4202 20.2676 48.3294 20.1971C48.2802 20.1597 48.2151 20.1522 48.1606 20.1821L45.6708 21.5408C45.58 21.5899 45.564 21.7127 45.6366 21.7854C46.7219 22.8823 48.3796 23.6653 50.4411 23.6653C54.1827 23.6653 56.1523 21.1466 56.1523 18.0288V7.072C56.1523 6.9545 56.0263 6.8808 55.9237 6.93741L53.1221 8.47978ZM50.3748 15.775C49.9818 15.7825 49.5908 15.7099 49.2266 15.5614C48.8613 15.4129 48.5302 15.1929 48.2535 14.9141C47.9758 14.6354 47.7579 14.3032 47.6127 13.9379C47.4674 13.5726 47.398 13.1816 47.4087 12.7896C47.399 12.3976 47.4695 12.0088 47.6148 11.6446C47.7611 11.2815 47.979 10.9514 48.2567 10.6748C48.5345 10.3971 48.8645 10.1792 49.2287 10.0339C49.593 9.88864 49.9828 9.81814 50.3748 9.82776C52.0133 9.82776 53.2107 11.1544 53.2107 12.7896C53.2107 14.4249 52.0133 15.775 50.3748 15.775Z"></path>
<path fill="#1A1A1A" d="M78.478 18.3636H76.754C73.2335 18.3636 72.082 17.1684 72.082 13.5646V4.82301C72.082 4.76747 72.113 4.71513 72.1621 4.68842L74.8891 3.18878C74.9916 3.13324 75.1166 3.20694 75.1166 3.32443V7.31067H77.0413C77.1268 7.31067 77.1951 7.37903 77.1951 7.46448V9.87417C77.1951 9.95855 77.1268 10.028 77.0413 10.028H75.1166V13.5432C75.1166 15.1881 75.3174 15.5053 76.9495 15.531H77.0787C77.1311 15.531 77.1802 15.5609 77.2048 15.6057L78.6051 18.1522C78.6563 18.2472 78.588 18.3636 78.478 18.3636Z"></path>
<path fill="#1A1A1A" d="M78.6563 12.8399C78.6606 11.7088 79.0002 10.6033 79.6336 9.66546C80.266 8.72658 81.1632 7.99598 82.2121 7.56659C83.2599 7.13614 84.4124 7.02612 85.5243 7.24936C86.6352 7.4726 87.6552 8.01948 88.4553 8.82164C89.2553 9.62273 89.799 10.6428 90.019 11.7537C90.238 12.8634 90.1237 14.0138 89.689 15.0584C89.2542 16.1031 88.5194 16.996 87.5762 17.6241C86.6341 18.2521 85.5254 18.5875 84.3921 18.5875C83.637 18.5886 82.8893 18.4412 82.1907 18.1517C81.4932 17.8633 80.8598 17.4393 80.3258 16.9052C79.7928 16.3712 79.3709 15.7367 79.0846 15.0392C78.7984 14.3417 78.6531 13.594 78.6563 12.8399ZM87.181 12.8399C87.1917 12.0901 86.9044 11.3659 86.381 10.8265C85.8587 10.2871 85.143 9.97735 84.3911 9.96346C84.0204 9.96987 83.6551 10.05 83.3155 10.1985C82.9758 10.3469 82.6692 10.5605 82.4129 10.8286C82.1565 11.0957 81.9557 11.4119 81.8222 11.7569C81.6887 12.1019 81.6246 12.4704 81.6353 12.8399C81.6257 13.2095 81.6898 13.5769 81.8233 13.9219C81.9568 14.267 82.1576 14.582 82.414 14.8491C82.6703 15.1161 82.9769 15.3297 83.3165 15.4782C83.6562 15.6267 84.0215 15.7068 84.3911 15.7132C85.142 15.6993 85.8565 15.3895 86.3799 14.8512C86.9022 14.3129 87.1906 13.5898 87.181 12.8399Z"></path>
<path fill="#1A1A1A" d="M92.2188 14.0524V7.48126C92.2188 7.39581 92.2871 7.32745 92.3726 7.32745H95.1422C95.2277 7.32745 95.296 7.39581 95.296 7.48126V13.6551C95.296 15.1376 95.9818 15.9996 97.3319 15.9996C98.4833 15.9996 99.435 15.2017 99.435 13.3464V7.46631C99.435 7.38086 99.5034 7.3125 99.5888 7.3125H102.316C102.401 7.3125 102.47 7.38086 102.47 7.46631V18.2117C102.47 18.2971 102.401 18.3655 102.316 18.3655H99.6134C99.5279 18.3655 99.4596 18.2971 99.4596 18.2117V17.1425C99.09 17.5964 98.6232 17.9607 98.0934 18.2095C97.5636 18.4584 96.9837 18.5845 96.3983 18.5791C93.791 18.5855 92.2188 16.9043 92.2188 14.0524Z"></path>
<path fill="#1A1A1A" d="M39.4507 7.3125H42.1776C42.2631 7.3125 42.3314 7.38086 42.3314 7.46631V18.2117C42.3314 18.2971 42.2631 18.3655 42.1776 18.3655H39.4507C39.3652 18.3655 39.2969 18.2971 39.2969 18.2117V7.46631C39.2969 7.38086 39.3652 7.3125 39.4507 7.3125Z"></path>
<path fill="#1A1A1A" d="M40.8062 2.56257C41.0508 2.55082 41.2944 2.59034 41.523 2.67793C41.7515 2.76551 41.9588 2.9001 42.1318 3.07313C42.3048 3.24617 42.4394 3.45232 42.5281 3.6809C42.6167 3.90948 42.6552 4.15301 42.6434 4.39654C42.6541 4.63901 42.6146 4.88147 42.5259 5.10791C42.4373 5.33435 42.3016 5.53943 42.1286 5.71033C41.9555 5.88123 41.7483 6.01368 41.5208 6.1002C41.2933 6.18565 41.0498 6.22303 40.8062 6.20915C40.5638 6.22303 40.3224 6.18565 40.0959 6.09913C39.8695 6.01261 39.6633 5.88017 39.4924 5.7082C39.3205 5.5373 39.188 5.33222 39.1015 5.10578C39.015 4.87933 38.9776 4.63794 38.9915 4.39654C38.9765 4.15408 39.0139 3.91054 39.0994 3.68303C39.1848 3.45552 39.3183 3.24831 39.4892 3.07527C39.6601 2.90223 39.8663 2.76765 40.0927 2.679C40.3192 2.59034 40.5627 2.55082 40.8062 2.56257Z"></path>
<path fill="#1A1A1A" d="M115.241 15.5164C115.339 15.542 115.385 15.6542 115.335 15.7428C115.13 16.0985 114.881 16.4467 114.609 16.7447C114.518 16.843 114.425 16.9402 114.327 17.0331C114.279 17.0801 114.228 17.125 114.178 17.1698C114.077 17.2596 113.973 17.345 113.865 17.4273C113.812 17.4689 113.757 17.5084 113.702 17.548C112.773 18.207 111.666 18.5691 110.527 18.5883C109.914 18.6107 109.302 18.536 108.715 18.3672C108.636 18.3448 108.557 18.3191 108.478 18.2924C108.421 18.2743 108.366 18.254 108.31 18.2337C108.265 18.2177 108.221 18.2006 108.178 18.1835C108.062 18.1376 107.949 18.0874 107.838 18.034C107.773 18.003 107.709 17.9709 107.646 17.9378C107.609 17.9197 107.575 17.9004 107.541 17.8823C107.13 17.6558 106.746 17.3781 106.402 17.0577C106.058 16.7373 105.755 16.3762 105.501 15.9832C105.424 15.8657 105.352 15.7439 105.284 15.62L105.283 15.6189C105.216 15.495 105.153 15.369 105.095 15.2408C104.783 14.554 104.609 13.8138 104.585 13.0597L104.583 13.0565C104.551 12.3035 104.669 11.5504 104.929 10.8433C104.977 10.7098 105.033 10.5784 105.091 10.4503C105.092 10.4503 105.092 10.4503 105.092 10.4492C105.15 10.321 105.212 10.195 105.281 10.0711C105.506 9.65986 105.782 9.27533 106.102 8.93033C106.422 8.58533 106.783 8.28091 107.175 8.02563C107.207 8.00427 107.241 7.9829 107.275 7.96154C107.336 7.92309 107.397 7.8857 107.46 7.85152C107.568 7.78957 107.677 7.73189 107.788 7.67635C107.83 7.65499 107.875 7.63469 107.918 7.6144C107.971 7.58983 108.025 7.56633 108.079 7.5439C108.156 7.51079 108.233 7.48088 108.31 7.45205C108.884 7.23949 109.488 7.11986 110.101 7.09743C111.239 7.0312 112.369 7.31105 113.344 7.89959C113.402 7.93484 113.46 7.97009 113.516 8.00747C113.63 8.08117 113.739 8.15914 113.847 8.24139C113.901 8.28198 113.954 8.32363 114.005 8.36743C114.11 8.45181 114.21 8.54153 114.307 8.63446C114.563 8.87585 114.795 9.14075 115.001 9.42487C115.053 9.4975 115.031 9.60111 114.953 9.64597L112.667 10.9961C112.602 11.0345 112.519 11.0185 112.47 10.9619C112.217 10.6671 111.904 10.4268 111.549 10.2537C110.948 9.96321 110.269 9.88844 109.621 10.0433C108.972 10.1982 108.399 10.572 107.995 11.1008C107.685 11.5066 107.491 11.9873 107.429 12.4904C107.419 12.562 107.414 12.6346 107.411 12.7072C107.406 12.7895 107.406 12.8717 107.41 12.955C107.413 13.0362 107.419 13.1163 107.429 13.1954C107.438 13.268 107.449 13.3385 107.463 13.41C107.563 13.9046 107.792 14.3649 108.131 14.7473C108.573 15.2451 109.172 15.5751 109.831 15.6819C110.489 15.7877 111.162 15.6627 111.738 15.3295C111.962 15.1981 112.167 15.0389 112.345 14.8563C112.384 14.8168 112.438 14.7997 112.492 14.8136C112.901 14.915 114.656 15.3636 115.241 15.5164Z"></path>
<path fill="#1A1A1A" d="M17.3721 12.8385H5.52344V0.988742C5.52344 0.815706 5.66336 0.675781 5.8364 0.675781H17.3732C17.5462 0.675781 17.6862 0.815706 17.6862 0.988742V12.5256C17.6851 12.6986 17.5452 12.8385 17.3721 12.8385Z"></path>
<path fill="#1A1A1A" d="M5.21352 18.3644H0.31296C0.139924 18.3644 0 18.2244 0 18.0514V13.1509C0 12.9778 0.139924 12.8379 0.31296 12.8379H5.52648V18.0514C5.52648 18.2244 5.38655 18.3644 5.21352 18.3644Z"></path>
</g>
</g>
<defs>
<clipPath id="clip0_5178_13460">
<rect transform="translate(0 0.675781)" fill="white" height="23.0715" width="127"></rect>
</clipPath>
</defs>
</svg>
