<svg xmlns="http://www.w3.org/2000/svg" fill="none" viewBox="0 0 112 21" height="21" width="112">
<g clip-path="url(#clip0_5259_4879)">
<path fill="#1A1A1A" d="M103.834 14.3871H105.774V8.70979L110.099 14.3871H111.77V5.4567H109.831V10.9556L105.646 5.4567H103.834V14.3871ZM95.4402 12.7285C93.8584 12.7285 92.7355 11.4529 92.7355 9.92175V9.89606C92.7355 8.36524 93.833 7.11494 95.4148 7.11494C96.9967 7.11494 98.119 8.39064 98.119 9.92175V9.94739C98.119 11.4782 97.0221 12.7285 95.4402 12.7285ZM95.4148 14.5398C98.1704 14.5398 100.174 12.4604 100.174 9.92175V9.89606C100.174 7.35742 98.1958 5.30333 95.4402 5.30333C92.6841 5.30333 90.6814 7.38305 90.6814 9.92175V9.94739C90.6814 12.4861 92.6593 14.5398 95.4148 14.5398ZM83.4609 14.5398C85.0935 14.5398 86.3567 13.9021 87.2752 13.1237V9.24542H83.3968V10.9423H85.3747V12.218C84.877 12.5752 84.2385 12.7539 83.5249 12.7539C81.9431 12.7539 80.8202 11.5546 80.8202 9.92146V9.89577C80.8202 8.37794 81.9558 7.11465 83.3841 7.11465C84.4175 7.11465 85.03 7.44621 85.7188 8.02018L86.9565 6.5274C86.0253 5.73632 85.0554 5.30273 83.4476 5.30273C80.7434 5.30273 78.7655 7.38247 78.7655 9.92118V9.94681C78.7655 12.5881 80.6793 14.5398 83.4609 14.5398ZM70.4983 10.6491L71.6847 7.75294L72.8717 10.6491H70.4983ZM66.9778 14.3871H68.9805L69.7974 12.384H73.5737L74.39 14.3871H76.4441L72.6165 5.3927H70.8049L66.9778 14.3871ZM60.599 14.5398C62.3211 14.5398 63.3413 13.9275 64.2598 12.9453L63.0099 11.6823C62.3084 12.3203 61.6826 12.7285 60.6625 12.7285C59.1314 12.7285 58.0726 11.4529 58.0726 9.92175V9.89606C58.0726 8.36524 59.1569 7.11494 60.6625 7.11494C61.5556 7.11494 62.2571 7.49747 62.9464 8.12282L64.1969 6.68108C63.3672 5.86433 62.3592 5.30303 60.6752 5.30303C57.9329 5.30303 56.0187 7.38276 56.0187 9.92146V9.9471C56.0187 12.5114 57.9705 14.5398 60.599 14.5398ZM45.9527 14.3871H52.7526V12.6391H47.9047V10.7638H52.1146V9.01594H47.9047V7.20402H52.6889V5.45641H45.9527V14.3871ZM36.0272 12.6135V7.22965H37.5454C39.1528 7.22965 40.2371 8.3399 40.2371 9.92175V9.94739C40.2371 11.5292 39.1526 12.6135 37.5454 12.6135H36.0272ZM34.0625 14.3871H37.5454C40.3521 14.3871 42.2912 12.4351 42.2912 9.92175V9.89606C42.2912 7.38276 40.3521 5.45641 37.5454 5.45641H34.0625V14.3871Z"></path>
<path fill="#1A1A1A" d="M5.26562 12.9851L18.0152 5.53516L21.4762 7.55769L8.72668 15.0074L5.26562 12.9851Z"></path>
<path fill="#1A1A1A" d="M4.67969 7.89986L17.4203 0.455078V4.49956L4.67969 11.9441V7.89986Z"></path>
<path fill="#1A1A1A" d="M0.0390625 5.88281L3.49141 7.89997V13.3273L8.13554 16.041V20.0861L0.0390625 15.3553V5.88281Z"></path>
<path fill="#1A1A1A" d="M9.32812 20.0867V16.0419L22.0688 8.59766V12.6419L9.32812 20.0867Z"></path>
<path fill="#1A1A1A" d="M12.1915 2.1297L4.08604 6.86593L0.625 4.84339L8.73049 0.107422L12.1915 2.1297Z"></path>
<path fill="#1A1A1A" d="M18.6133 4.49962V0.455078L26.7095 5.18588V14.6584L23.2574 12.6412V7.21362L18.6133 4.49962Z"></path>
<path fill="#1A1A1A" d="M14.5547 18.412L22.6601 13.6758L26.1216 15.6983L18.0159 20.4343L14.5547 18.412Z"></path>
</g>
<defs>
<clipPath id="clip0_5259_4879">
<rect transform="translate(0 0.107422)" fill="white" height="20.7835" width="112"></rect>
</clipPath>
</defs>
</svg>
