<svg xmlns="http://www.w3.org/2000/svg" fill="none" viewBox="0 0 141 19" height="19" width="141">
<g clip-path="url(#clip0_5430_9897)">
<path fill-opacity="0.65" fill="#1A1A1A" d="M128.271 1.64941H130.018V15.306H128.271V13.7802C127.637 14.8539 126.542 15.5509 124.892 15.5509C122.53 15.5509 120.476 13.6295 120.476 10.2766C120.476 6.94249 122.53 5.00234 124.892 5.00234C126.542 5.00234 127.637 5.69929 128.271 6.77298V1.64941ZM125.333 6.47159C123.548 6.47159 122.377 7.86554 122.377 10.2766C122.377 12.6877 123.548 14.0816 125.333 14.0816C126.888 14.0816 128.347 12.9514 128.347 10.2766C128.347 7.60179 126.888 6.47159 125.333 6.47159ZM133.032 10.8041C133.109 12.9891 134.683 14.044 136.219 14.044C137.755 14.044 138.599 13.3659 139.041 12.3675H140.846C140.366 14.1193 138.734 15.5509 136.219 15.5509C132.955 15.5509 131.151 13.2528 131.151 10.2578C131.151 7.05554 133.339 5.00236 136.161 5.00236C139.31 5.00236 141.211 7.60179 140.98 10.8041H133.032ZM133.051 9.33477H139.137C139.099 7.90318 138.005 6.47159 136.161 6.47159C134.606 6.47159 133.205 7.30041 133.051 9.33477ZM114.905 15.5509C117.305 15.5509 119.859 13.9498 119.859 10.2766C119.859 6.60346 117.305 5.00236 114.905 5.00236C112.505 5.00236 109.952 6.60346 109.952 10.2766C109.952 13.9498 112.505 15.5509 114.905 15.5509ZM117.997 10.2766C117.997 12.8761 116.479 14.044 114.905 14.044C113.331 14.044 111.814 12.9702 111.814 10.2766C111.814 7.50762 113.331 6.50929 114.905 6.50929C116.479 6.50929 117.997 7.58297 117.997 10.2766ZM109.357 8.56248H107.59C107.341 7.35693 106.266 6.50929 104.922 6.50929C103.367 6.50929 101.946 7.69602 101.946 10.2389C101.946 12.8195 103.386 14.044 104.922 14.044C106.381 14.044 107.418 13.0833 107.667 12.0096H109.472C109.126 13.9121 107.264 15.5509 104.864 15.5509C101.908 15.5509 100.045 13.347 100.045 10.2578C100.045 7.24394 101.984 5.00236 105.037 5.00236C107.533 5.00236 109.126 6.84832 109.357 8.56248ZM94.0271 2.62894H92.28V5.17188H90.648V6.54694H92.28V12.7631C92.28 14.8727 92.7406 15.306 94.7182 15.306H95.9854V13.8744H95.1019C94.104 13.8744 94.0271 13.6107 94.0271 12.5559V6.54694H95.9854V5.17188H94.0271V2.62894ZM83.3408 6.69763C83.9356 5.73699 84.9341 5.00236 86.6812 5.00236C89.1768 5.00236 90.0791 6.58464 90.0791 8.90157V15.306H88.332V9.41012C88.332 7.84672 88.0634 6.49047 86.067 6.49047C84.3774 6.49047 83.3408 7.6395 83.3408 9.80573V15.306H81.5937V5.17189H83.3408V6.69763ZM75.708 14.044C74.1721 14.044 72.5981 12.9891 72.5213 10.8041H80.4693C80.6999 7.60179 78.7991 5.00236 75.6505 5.00236C72.8287 5.00236 70.6399 7.05554 70.6399 10.2578C70.6399 13.2528 72.4444 15.5509 75.708 15.5509C78.223 15.5509 79.8551 14.1193 80.335 12.3675H78.5304C78.0887 13.3659 77.2439 14.044 75.708 14.044ZM78.6266 9.33477H72.5406C72.6944 7.30041 74.0953 6.47159 75.6505 6.47159C77.4938 6.47159 78.5879 7.90318 78.6266 9.33477ZM56.7419 15.306H54.9949V5.17189H56.7419V6.69763C57.337 5.73699 58.297 5.00236 59.852 5.00236C61.4265 5.00236 62.3669 5.68048 62.828 6.79186C63.6534 5.54862 64.8625 5.00236 66.3028 5.00236C68.7022 5.00236 69.6432 6.58464 69.6432 8.90157V15.306H67.8961V9.41012C67.8961 7.84672 67.5887 6.49047 65.6885 6.49047C64.1908 6.49047 63.1923 7.6395 63.1923 9.80573V15.306H61.4452V9.41012C61.4452 7.84672 61.1384 6.49047 59.2377 6.49047C57.7402 6.49047 56.7419 7.6395 56.7419 9.80573V15.306ZM53.1483 5.17189H51.4013V6.77298C50.7677 5.69932 49.7694 5.00236 48.1184 5.00236C45.8337 5.00236 43.7411 6.8295 43.7411 10.0694C43.7411 13.3282 45.8337 15.1365 48.1184 15.1365C49.7694 15.1365 50.7677 14.4584 51.4013 13.3847V14.3454C51.4013 15.7204 51.1133 16.1913 50.7293 16.5869C50.2686 17.0767 49.5583 17.3404 48.6175 17.3404C47.0049 17.3404 46.4481 16.6434 46.2177 15.7393H44.3555C44.6818 17.7924 46.2561 18.8473 48.5983 18.8473C50.1342 18.8473 51.4205 18.3576 52.1692 17.5099C52.7643 16.8695 53.1483 16.0218 53.1483 13.9498V5.17189ZM45.6418 10.0694C45.6418 7.77137 46.8513 6.47159 48.5599 6.47159C50.115 6.47159 51.4781 7.50762 51.4781 10.0694C51.4781 12.65 50.115 13.6861 48.5599 13.6861C46.8513 13.6861 45.6418 12.3863 45.6418 10.0694ZM40.8449 13.8559C40.2498 14.8166 39.3091 15.5512 37.6004 15.5512C35.2006 15.5512 34.2983 13.9689 34.2983 11.6521V5.17222H36.0454V11.1435C36.0454 12.7069 36.3141 14.0631 38.2148 14.0631C39.8658 14.0631 40.8449 12.9141 40.8449 10.7479V5.17222H42.592V15.3064H40.8449V13.8559ZM31.0136 9.07097C26.7708 9.54187 24.0254 10.2388 24.0254 12.6311C24.0254 14.4959 25.6381 15.5508 27.5771 15.5508C29.4009 15.5508 30.4761 14.948 31.1096 13.912C31.1288 14.5148 31.1864 14.9291 31.244 15.3059H33.0102C32.8182 14.3452 32.7222 13.1773 32.7414 11.4821L32.7607 9.14632C32.7799 6.30196 31.4935 4.96458 28.6522 4.96458C26.6364 4.96458 24.6782 6.18897 24.5054 8.37402H26.31C26.3868 7.13077 27.2315 6.35848 28.6714 6.35848C29.9577 6.35848 31.0136 6.98008 31.0136 8.82611V9.07097ZM25.9644 12.5934C25.9644 11.1995 27.9803 10.7474 31.148 10.4272V11.0676C31.148 13.4599 29.5929 14.1946 27.961 14.1946C26.7132 14.1946 25.9644 13.5541 25.9644 12.5934Z" clip-rule="evenodd" fill-rule="evenodd"></path>
<path fill-opacity="0.65" fill="#1A1A1A" d="M8.66318 0.110005C8.77464 0.0501441 8.92551 0.0273438 9.09997 0.0273438C9.27504 0.0273438 9.42676 0.0512288 9.53883 0.114065C9.66137 0.182793 9.728 0.293951 9.728 0.432639V0.437288L9.63226 2.94256C9.63184 2.99712 9.61816 3.05049 9.58748 3.09836C9.55656 3.14654 9.51293 3.18219 9.46355 3.20784C9.3686 3.25719 9.2423 3.27499 9.09997 3.27499C8.9577 3.27499 8.83141 3.25719 8.73646 3.20784C8.68708 3.18219 8.64345 3.14654 8.61253 3.09836C8.58184 3.0505 8.56817 2.99713 8.56774 2.94259C8.54372 2.31884 8.52423 1.83529 8.50826 1.49265L8.50814 1.48976C8.50009 1.13833 8.49216 0.88979 8.48423 0.743425C8.47631 0.596578 8.47201 0.502551 8.47201 0.467502V0.42083C8.47201 0.356393 8.48726 0.294146 8.52187 0.238462C8.55631 0.183048 8.60563 0.140952 8.66318 0.110005ZM10.6932 0.110005C10.8046 0.0501441 10.9554 0.0273438 11.13 0.0273438C11.305 0.0273438 11.4567 0.0512288 11.5687 0.114065C11.6913 0.182793 11.7579 0.293951 11.7579 0.432639V0.437288L11.6622 2.94256C11.6618 2.99712 11.6481 3.05049 11.6175 3.09836C11.5865 3.14654 11.5428 3.18219 11.4935 3.20784C11.3985 3.25719 11.2722 3.27499 11.13 3.27499C10.9877 3.27499 10.8614 3.25719 10.7664 3.20784C10.7171 3.18219 10.6734 3.14654 10.6424 3.09836C10.6118 3.05051 10.5981 2.99715 10.5977 2.9426C10.5736 2.31885 10.5542 1.83529 10.5382 1.49265L10.5381 1.48976C10.5301 1.13833 10.5221 0.88979 10.5141 0.743425C10.5062 0.596578 10.502 0.502551 10.502 0.467502V0.42083C10.502 0.356393 10.5172 0.294146 10.5518 0.238462C10.5862 0.183048 10.6355 0.140952 10.6932 0.110005ZM12.3767 4.01235C12.4973 3.90576 12.6466 3.85545 12.8163 3.85545H16.6091C17.0961 3.85545 17.4873 3.98317 17.7649 4.25429C18.0435 4.52635 18.1718 4.91666 18.1718 5.40224V8.56806C18.1718 8.93707 18.2486 9.18111 18.3748 9.32408C18.4963 9.46112 18.729 9.55143 19.1136 9.56016L19.1201 9.56028C19.2733 9.57144 19.4043 9.6304 19.5034 9.74083C19.6038 9.85133 19.6487 9.98991 19.6487 10.1442C19.6487 10.2927 19.6024 10.4267 19.5074 10.5419C19.4083 10.6641 19.2714 10.7279 19.1123 10.7283C18.7285 10.7372 18.4965 10.8275 18.3744 10.9647C18.2479 11.1076 18.1718 11.3542 18.1718 11.7344V14.9002C18.1718 15.2219 18.1149 15.5018 17.9945 15.7379C17.8733 15.976 17.6936 16.1551 17.4561 16.2748L17.4555 16.2751C17.2195 16.3924 16.9356 16.4481 16.6091 16.4481H12.9428V16.4515H12.8163C12.6438 16.4515 12.4944 16.3967 12.374 16.2849C12.2558 16.1745 12.1917 16.0379 12.1917 15.8815C12.1917 15.7321 12.2427 15.5969 12.3439 15.4848C12.451 15.3662 12.5937 15.3103 12.759 15.3103H16.2807C16.4601 15.3103 16.5735 15.2657 16.6455 15.1939L16.6463 15.1932C16.7175 15.1232 16.7657 15.0034 16.7657 14.8058V11.6113C16.7657 11.3152 16.8267 11.0433 16.9493 10.7972C17.0711 10.552 17.2363 10.3563 17.4452 10.212C17.4797 10.1883 17.5157 10.1663 17.5522 10.1465C17.5157 10.1267 17.4802 10.1049 17.4456 10.0812C17.2362 9.9379 17.071 9.74125 16.9492 9.49562C16.8266 9.24951 16.7657 8.97763 16.7657 8.68164V5.5012C16.7657 5.30526 16.7178 5.18488 16.646 5.11353C16.5727 5.04187 16.4579 4.99668 16.2807 4.99668H12.759C12.5941 4.99668 12.452 4.93969 12.3445 4.82225C12.2426 4.71088 12.1917 4.57582 12.1917 4.42494C12.1917 4.26139 12.2528 4.12082 12.3767 4.01235ZM12.3767 4.01235L12.3761 4.01285L12.4609 4.10498L12.3767 4.01235ZM2.36213 4.25763C2.63877 3.9862 3.03129 3.85858 3.51815 3.85858H7.31097C7.4815 3.85858 7.62988 3.90995 7.75049 4.01546L7.75109 4.01598C7.87291 4.12393 7.93554 4.26513 7.93554 4.42807C7.93554 4.57941 7.88441 4.71284 7.78335 4.82473C7.67648 4.94304 7.53391 4.99981 7.36828 4.99981H3.84654C3.66788 4.99981 3.55372 5.04517 3.4812 5.11672C3.40995 5.18663 3.36156 5.30675 3.36156 5.50434V8.68479C3.36156 8.98089 3.30058 9.25277 3.17791 9.499C3.05605 9.7441 2.89089 9.93986 2.68203 10.0841C2.64747 10.1078 2.61154 10.1298 2.57507 10.1496C2.61154 10.1694 2.64706 10.1911 2.6816 10.2148C2.891 10.3582 3.05624 10.5548 3.17802 10.8004C3.30069 11.0466 3.36156 11.3183 3.36156 11.6144V14.8089C3.36156 15.0063 3.40959 15.1259 3.4812 15.1965C3.55393 15.2686 3.66845 15.3134 3.84654 15.3134H7.36828C7.53312 15.3134 7.67497 15.3704 7.7825 15.487C7.8858 15.5998 7.93554 15.7347 7.93554 15.8846C7.93554 16.042 7.87237 16.1774 7.75327 16.288C7.63242 16.4009 7.48241 16.4547 7.31097 16.4547H3.39163V16.4484C3.11785 16.4355 2.87675 16.3801 2.67179 16.2782C2.43364 16.1595 2.25263 15.9777 2.13256 15.7409C2.01356 15.5061 1.95542 15.2247 1.95542 14.9034V11.7376C1.95542 11.3591 1.87844 11.1113 1.75242 10.9675C1.63099 10.8306 1.39872 10.7404 1.01496 10.7314C0.854644 10.731 0.719018 10.6687 0.619495 10.5446C0.524813 10.429 0.478516 10.2941 0.478516 10.1474C0.478516 9.993 0.523443 9.85442 0.62387 9.74386C0.723502 9.6336 0.855576 9.57476 1.00705 9.5636L1.01343 9.56312C1.39854 9.55386 1.63117 9.46409 1.75263 9.32699C1.87964 9.18366 1.95542 8.94052 1.95542 8.57121V5.40537C1.95542 4.9195 2.08505 4.52948 2.36213 4.25763ZM13.6312 8.78027C12.8708 8.78027 12.2542 9.38524 12.2542 10.1313C12.2542 10.8775 12.8708 11.4825 13.6312 11.4825C14.3917 11.4825 15.0083 10.8775 15.0083 10.1313C15.0083 9.38524 14.3917 8.78027 13.6312 8.78027ZM5.40954 10.1313C5.40954 9.38524 6.02612 8.78027 6.78661 8.78027C7.54704 8.78027 8.16362 9.38524 8.16362 10.1313C8.16362 10.8775 7.54704 11.4825 6.78661 11.4825C6.02612 11.4825 5.40954 10.8775 5.40954 10.1313Z" clip-rule="evenodd" fill-rule="evenodd"></path>
</g>
<defs>
<clipPath id="clip0_5430_9897">
<rect fill="white" height="19" width="141"></rect>
</clipPath>
</defs>
</svg>
