<svg xmlns="http://www.w3.org/2000/svg" fill="none" viewBox="0 0 70 20" height="20" width="70">
<g clip-path="url(#clip0_5430_10098)">
<path fill-opacity="0.65" fill="#1A1A1A" d="M8.369 7.90391C8.369 7.96226 8.34534 8.01822 8.30322 8.05948C8.2611 8.10073 8.20398 8.12391 8.14442 8.12391H4.81713C4.79217 8.12391 4.76746 8.12873 4.74441 8.13808C4.72135 8.14744 4.7004 8.16115 4.68275 8.17843C4.66511 8.19572 4.65111 8.21624 4.64156 8.23883C4.63201 8.26141 4.6271 8.28562 4.6271 8.31007L4.65128 12.2701C4.65129 12.2925 4.65245 12.313 4.65474 12.331C4.96109 13.8676 5.91701 14.8661 7.52249 15.3264C7.7321 15.3873 7.87492 15.4087 7.95093 15.3907C8.15824 15.341 8.29183 15.4087 8.35172 15.5938C8.35627 15.6049 8.35862 15.6164 8.35863 15.6276V19.1307C8.35853 19.1749 8.34879 19.2187 8.33007 19.259C8.31136 19.2992 8.28409 19.3352 8.25008 19.3643C8.21608 19.3934 8.17612 19.4152 8.13288 19.428C8.08964 19.4408 8.0441 19.4445 7.9993 19.4387C4.31613 18.9423 1.94361 17.1969 0.881736 14.2027C0.584595 13.3633 0.437176 12.0704 0.43948 10.3239C0.450997 4.1955 0.457908 1.08504 0.460211 0.992528C0.459752 0.964691 0.465042 0.937043 0.475776 0.911194C0.486509 0.885345 0.50247 0.861814 0.522729 0.841968C0.542988 0.822123 0.567139 0.806361 0.593776 0.795602C0.620414 0.784842 0.649005 0.7793 0.677884 0.779297L4.4267 0.789451C4.48108 0.790339 4.53292 0.812125 4.57106 0.850114C4.60919 0.888102 4.63056 0.93925 4.63055 0.992528V3.8796C4.63055 3.92628 4.64984 3.97105 4.68419 4.00406C4.71853 4.03706 4.76511 4.0556 4.81367 4.0556H8.1686C8.22175 4.0556 8.27272 4.07629 8.3103 4.1131C8.34789 4.14992 8.369 4.19985 8.369 4.25191V7.90391Z"/>
<path fill-opacity="0.65" fill="#1A1A1A" d="M40.295 12.9533C40.8708 14.1266 41.7496 14.922 42.9312 15.3395C42.9792 15.3551 43.0296 15.362 43.0798 15.3598L44.9767 15.2819C45.036 15.2796 45.0947 15.2659 45.1494 15.2413C47.4713 14.2902 48.6046 11.7213 47.0014 9.59576C45.9003 8.13361 44.3018 7.75228 42.2057 8.45176C42.1848 8.45879 42.1625 8.46082 42.1407 8.45768C42.1189 8.45455 42.0981 8.44635 42.0802 8.43376C42.0623 8.42117 42.0477 8.40456 42.0377 8.38531C42.0276 8.36607 42.0224 8.34476 42.0225 8.32315V4.44777C42.0223 4.39421 42.0412 4.34227 42.0759 4.30087C42.1106 4.25948 42.1589 4.23123 42.2126 4.221C45.032 3.68284 47.8617 4.54253 49.8035 6.58346C51.2777 8.13135 51.9376 10.0301 51.7833 12.2798C51.6658 13.9834 51.06 15.4455 49.9659 16.6662C48.0345 18.8188 44.9041 19.8985 41.9845 19.1336C39.3241 18.4319 37.4975 16.8298 36.5047 14.3275C36.1569 13.4475 35.9853 12.1726 35.9899 10.5028C36.0083 5.18674 36.0072 2.02551 35.9864 1.01915C35.9855 0.988361 35.9909 0.957703 36.0023 0.928994C36.0137 0.900284 36.0308 0.874107 36.0528 0.852013C36.0747 0.829919 36.1009 0.812357 36.1298 0.80037C36.1588 0.788383 36.1899 0.782213 36.2214 0.782227H39.9806C40.0456 0.782227 40.108 0.807901 40.154 0.853602C40.2 0.899303 40.2259 0.961287 40.2259 1.02592V12.6622C40.2259 12.7625 40.2495 12.862 40.295 12.9533Z"/>
<path fill-opacity="0.65" fill="#1A1A1A" d="M10.1736 19.1475C10.1713 18.9602 10.1713 16.6734 10.1736 12.2869C10.1771 7.81245 13.2314 4.18414 17.9546 4.07922C17.9805 4.07831 18.0064 4.08263 18.0307 4.09192C18.055 4.1012 18.0771 4.11527 18.0958 4.13327C18.1145 4.15128 18.1294 4.17286 18.1396 4.19672C18.1497 4.22058 18.1549 4.24623 18.1549 4.27214V7.89707C18.1551 7.94956 18.1348 8.00012 18.0982 8.03847C18.0616 8.07682 18.0115 8.10009 17.958 8.10353C16.5783 8.20281 15.5429 8.79963 14.8518 9.89399C14.5294 10.4039 14.3727 11.2422 14.3819 12.4088C14.4004 15.1007 14.4027 17.3875 14.3889 19.2694C14.388 19.3002 14.3752 19.3294 14.3532 19.3509C14.3313 19.3724 14.302 19.3844 14.2714 19.3844H10.4155C10.3519 19.3844 10.2909 19.3596 10.2457 19.3153C10.2004 19.2709 10.1745 19.2107 10.1736 19.1475Z"/>
<path fill-opacity="0.65" fill="#1A1A1A" d="M18.4436 10.7056C18.515 10.0355 18.6717 9.43413 18.9135 8.90162C20.056 6.39023 21.9759 4.83444 24.6732 4.23423C28.5499 3.37454 32.4265 5.65577 33.7637 9.24008C34.1092 10.1629 34.2589 11.5258 34.2128 13.3287C34.1737 14.8157 34.176 16.7945 34.2198 19.2653C34.2202 19.2807 34.2175 19.296 34.2118 19.3104C34.2061 19.3247 34.1975 19.3378 34.1866 19.3489C34.1756 19.3599 34.1625 19.3687 34.148 19.3747C34.1336 19.3807 34.118 19.3838 34.1023 19.3838H30.2533C30.1955 19.3838 30.1402 19.3617 30.0993 19.3223C30.0585 19.283 30.0356 19.2296 30.0356 19.1739C30.0356 15.4373 30.0298 13.032 30.0183 11.9579C30.0022 10.4348 29.4471 9.35177 28.3529 8.70869C27.397 8.14685 26.372 7.98777 25.2779 8.23146C23.2221 8.685 21.8608 11.1862 22.8247 13.1121C23.9027 15.2748 25.7616 15.8096 28.0247 15.0244C28.0464 15.0169 28.0697 15.0145 28.0925 15.0175C28.1153 15.0205 28.1371 15.0289 28.156 15.0418C28.1749 15.0547 28.1904 15.0718 28.2012 15.0917C28.2121 15.1116 28.2179 15.1338 28.2182 15.1564V19.0047C28.2181 19.0565 28.1994 19.1067 28.1653 19.1464C28.1311 19.186 28.0838 19.2125 28.0316 19.2213C24.5235 19.8057 21.7479 18.7328 19.7048 16.0025C18.6452 14.5878 18.2133 12.8165 18.4091 10.6887C18.4097 10.6857 18.4105 10.6825 18.4115 10.6795C18.4125 10.6765 18.4137 10.6737 18.4148 10.6716C18.4158 10.6695 18.4169 10.668 18.4177 10.6675C18.4185 10.6669 18.4191 10.6672 18.4195 10.6684C18.4195 10.6864 18.4218 10.6988 18.4264 10.7056C18.4273 10.7079 18.4291 10.71 18.4314 10.7116C18.4337 10.7132 18.4362 10.7141 18.4385 10.7141C18.4408 10.7141 18.4427 10.7132 18.4436 10.7116C18.4446 10.71 18.4446 10.7079 18.4436 10.7056Z"/>
<path fill-opacity="0.65" fill="#1A1A1A" d="M56.8204 17.8047C54.6644 16.2026 53.6417 14.0534 53.7522 11.357C53.8305 9.42775 54.5193 7.81893 55.8184 6.53052C57.1567 5.206 58.7587 4.40949 60.6245 4.14098C62.5501 3.86118 64.409 4.32036 66.2011 5.51852C68.3501 6.95811 69.4454 9.02272 69.4869 11.7124C69.5422 15.3158 69.5502 17.8092 69.5111 19.1924C69.5093 19.2432 69.4874 19.2915 69.45 19.3268C69.4126 19.3622 69.3626 19.3819 69.3107 19.3819H65.5377C65.4845 19.3819 65.4336 19.3616 65.396 19.3254C65.3584 19.2892 65.3373 19.2401 65.3373 19.189L65.2785 10.5379C65.2786 10.4697 65.2569 10.4024 65.2163 10.345L64.432 9.25513C64.3763 9.17642 64.2929 9.11993 64.1971 9.09605C64.0059 9.04867 63.8861 8.97534 63.8378 8.87605C63.7946 8.78475 63.7236 8.6967 63.6304 8.61882C63.225 8.27134 62.572 8.09985 61.6714 8.10436C60.12 8.11452 59.4048 8.59175 58.4927 9.7019C58.0458 10.2434 57.8466 10.9971 57.8949 11.9628C57.9433 12.9037 58.298 13.689 58.9591 14.3185C60.2536 15.5483 61.7255 15.7773 63.3748 15.0056C63.3935 14.9972 63.4141 14.9934 63.4347 14.9948C63.4553 14.9961 63.4752 15.0024 63.4927 15.0131C63.5102 15.0239 63.5247 15.0387 63.5349 15.0563C63.545 15.0739 63.5506 15.0937 63.551 15.1139V18.9791C63.5509 19.0465 63.526 19.1116 63.481 19.1626C63.436 19.2135 63.3737 19.2469 63.3057 19.2567C60.7765 19.6222 58.6147 19.1382 56.8204 17.8047Z"/>
</g>
<defs>
<clipPath id="clip0_5430_10098">
<rect fill="white" height="20" width="70"/>
</clipPath>
</defs>
</svg>