<svg xmlns="http://www.w3.org/2000/svg" width="103" height="27" viewBox="0 0 103 27" fill="none">
<mask id="mask0_5259_4952" style="mask-type:luminance" maskUnits="userSpaceOnUse" x="0" y="1" width="24" height="25">
<path d="M0 1.55566H23.9098V25.4452H0V1.55566Z" fill="white"/>
</mask>
<g mask="url(#mask0_5259_4952)">
<path fill-rule="evenodd" clip-rule="evenodd" d="M2.95944 6.44794C2.85484 6.34347 2.79377 6.20321 2.78856 6.05547C2.78335 5.90772 2.83438 5.76351 2.93136 5.65193C3.55843 4.93098 4.26925 4.28739 5.04875 3.73479C5.1616 3.65473 5.29911 3.61712 5.43699 3.6286C5.57487 3.64009 5.70427 3.69992 5.80232 3.79754L10.0884 8.08364C10.165 8.16081 10.222 8.25528 10.2545 8.35909C10.287 8.4629 10.294 8.573 10.2751 8.68011C10.2561 8.78722 10.2116 8.88819 10.1454 8.9745C10.0792 9.06082 9.99324 9.12995 9.89472 9.17607C9.20716 9.50512 8.60777 9.99307 8.14611 10.5996C8.09118 10.6748 8.02034 10.737 7.93864 10.7817C7.85693 10.8264 7.76637 10.8526 7.67341 10.8583C7.58045 10.864 7.48737 10.8491 7.40081 10.8147C7.31425 10.7803 7.23634 10.7273 7.17263 10.6594L2.95944 6.44794ZM7.39193 12.053C7.42756 11.9431 7.4323 11.8256 7.40564 11.7132C7.37897 11.6009 7.32193 11.498 7.24074 11.4159L5.32838 9.50353C5.27287 9.44788 5.20692 9.40372 5.13432 9.3736C5.06171 9.34347 4.98388 9.32796 4.90527 9.32796C4.82667 9.32796 4.74883 9.34347 4.67623 9.3736C4.60363 9.40372 4.53768 9.44788 4.48217 9.50353L2.58117 11.4045C2.49751 11.4881 2.44052 11.5947 2.41743 11.7107C2.39434 11.8267 2.40618 11.9469 2.45145 12.0562C2.48152 12.1287 2.5256 12.1947 2.58117 12.2502L7.17144 16.8392C7.22823 16.8963 7.29783 16.9389 7.37443 16.9637C7.45104 16.9884 7.53244 16.9945 7.61187 16.9814C8.00689 16.9157 8.15867 16.4287 7.94056 16.0928C7.55804 15.501 7.31065 14.8322 7.21601 14.134C7.12141 13.4357 7.18188 12.7252 7.39312 12.053H7.39193ZM8.77002 17.2892C8.37617 17.3764 7.97954 17.4506 7.58079 17.5115C7.44938 17.5311 7.32936 17.5972 7.24251 17.6978C7.15567 17.7983 7.10776 17.9267 7.10749 18.0595V20.2707C7.10749 20.3492 7.12294 20.4269 7.15297 20.4994C7.183 20.5719 7.22702 20.6378 7.28251 20.6933C7.33801 20.7488 7.40389 20.7928 7.47639 20.8228C7.5489 20.8529 7.62661 20.8683 7.70509 20.8683H10.3943C10.5528 20.8683 10.7048 20.8054 10.8169 20.6933C10.929 20.5812 10.992 20.4292 10.992 20.2707V18.6416C10.9916 18.5081 10.9487 18.3782 10.8695 18.2708C10.7903 18.1633 10.6789 18.0839 10.5515 18.044C10.0743 17.8946 9.62351 17.6709 9.21585 17.3813C9.13214 17.3225 9.03402 17.2876 8.93199 17.2803C8.87785 17.2752 8.82327 17.2782 8.77002 17.2892ZM11.9726 18.2735C11.8427 18.2708 11.717 18.3195 11.6229 18.409C11.5287 18.4986 11.4738 18.6217 11.47 18.7516V25.048C11.47 25.1533 11.5119 25.2542 11.5863 25.3286C11.6607 25.403 11.7616 25.4448 11.8669 25.4448H12.0211C13 25.4419 13.9748 25.3187 14.9236 25.0779C15.0481 25.0452 15.158 24.9718 15.2361 24.8695C15.3141 24.7672 15.3558 24.6418 15.3545 24.5132V18.3159C15.3547 18.1901 15.3222 18.0664 15.2601 17.957C15.198 17.8476 15.1085 17.7563 15.0004 17.692C14.8922 17.6277 14.7692 17.5926 14.6434 17.5904C14.5176 17.5881 14.3934 17.6186 14.283 17.6789C13.5757 18.0701 12.7803 18.2748 11.972 18.2735H11.9726ZM15.9348 16.1424C15.8679 16.2434 15.8323 16.3619 15.8326 16.483V20.3293C15.8326 20.4878 15.8956 20.6398 16.0076 20.7519C16.1197 20.8639 16.2717 20.9269 16.4302 20.9269H19.1165C19.1954 20.9269 19.2736 20.9113 19.3465 20.8811C19.4194 20.8509 19.4856 20.8066 19.5414 20.7508C19.5972 20.6949 19.6414 20.6287 19.6715 20.5557C19.7017 20.4828 19.7172 20.4046 19.7171 20.3257V11.5031C19.717 11.4008 19.6884 11.3005 19.6346 11.2134C19.5808 11.1263 19.5038 11.056 19.4123 11.0101C19.3011 10.9551 19.1747 10.9392 19.0534 10.9649C18.932 10.9906 18.8229 11.0564 18.7436 11.1518C18.1872 11.8164 17.5845 12.4409 16.94 13.0205C16.8769 13.0787 16.8267 13.1494 16.7927 13.2281C16.7586 13.3069 16.7414 13.3919 16.7422 13.4777C16.7438 14.4264 16.4627 15.3541 15.9348 16.1424ZM16.3376 11.5856C16.524 12.0141 17.0924 12.1982 17.4199 11.8647C17.7306 11.5484 18.0296 11.2206 18.3163 10.8822C18.4099 10.7707 18.4582 10.6281 18.4516 10.4827C18.4451 10.3373 18.3842 10.1996 18.281 10.097L11.8531 3.66846C11.741 3.55642 11.5891 3.49349 11.4306 3.49349C11.2721 3.49349 11.1202 3.55642 11.0081 3.66846L9.10649 5.57007C8.99445 5.68214 8.93151 5.83411 8.93151 5.99257C8.93151 6.15104 8.99445 6.30301 9.10649 6.41508L11.2292 8.5378C11.2897 8.59839 11.3622 8.64564 11.4421 8.67651C11.522 8.70739 11.6074 8.72121 11.6929 8.71707C11.779 8.7123 11.8651 8.70991 11.9523 8.70991C12.884 8.70985 13.7953 8.98199 14.5744 9.49287C15.3535 10.0038 15.9663 10.7311 16.3376 11.5856ZM0.72556 10.3946C0.649336 10.3195 0.595374 10.2247 0.569643 10.1208C0.543911 10.0169 0.547412 9.90797 0.579759 9.80595C0.89396 8.83636 1.33162 7.91123 1.88196 7.05335C1.92878 6.98072 1.99124 6.91947 2.06476 6.87406C2.13829 6.82866 2.22103 6.80026 2.30694 6.79093C2.39285 6.78161 2.47976 6.79159 2.56132 6.82014C2.64288 6.84868 2.71704 6.89508 2.77839 6.95594L4.13557 8.31369C4.2476 8.42576 4.31054 8.57774 4.31054 8.73621C4.31054 8.89468 4.2476 9.04666 4.13557 9.15874L2.23573 11.0573C2.12367 11.1694 1.97169 11.2323 1.81323 11.2323C1.65476 11.2323 1.50278 11.1694 1.39072 11.0573L0.72556 10.3946ZM0.258299 15.9757C-0.0349941 14.5801 -0.0789139 13.1436 0.128573 11.7326C0.19668 11.2707 0.75545 11.1099 1.08475 11.4398L4.49114 14.8462L4.49473 14.8492C4.63517 14.992 4.78933 15.148 4.93097 15.2896L5.8734 16.2327C6.226 16.5852 6.01503 17.1822 5.51485 17.2067C5.22202 17.2207 4.92719 17.2277 4.63039 17.2277C3.47505 17.2285 2.32231 17.118 1.18814 16.8978C0.473951 16.7436 0.354456 16.385 0.258267 15.9757H0.258299ZM17.779 3.2818C17.97 3.24358 18.1684 3.2804 18.333 3.3846C19.3482 4.02664 20.2611 4.81753 21.0413 5.73081C21.1102 5.81165 21.155 5.9101 21.1708 6.01506C21.1867 6.12003 21.1729 6.22733 21.131 6.32486C20.6513 7.45002 20.0573 8.52297 19.3585 9.52684C19.3094 9.59636 19.2456 9.65423 19.1716 9.69634C19.0976 9.73844 19.0152 9.76376 18.9304 9.77049C18.8455 9.77722 18.7602 9.7652 18.6805 9.73528C18.6008 9.70536 18.5287 9.65828 18.4692 9.59737L15.2989 6.42464C15.2149 6.34102 15.1577 6.23433 15.1346 6.11812C15.1114 6.00191 15.1233 5.88143 15.1688 5.772C15.1989 5.69935 15.2432 5.63337 15.2989 5.57785C15.8565 5.02027 16.8324 4.04495 17.3875 3.48918C17.4933 3.38385 17.6278 3.31212 17.7742 3.28299L17.779 3.2818ZM12.2027 2.47323L12.7752 1.90132C12.8823 1.79423 13.015 1.71626 13.1606 1.67482H13.166C13.2824 1.64114 13.4044 1.63139 13.5246 1.64616C14.5765 1.78451 15.6052 2.06307 16.5832 2.47442C16.6706 2.51073 16.7478 2.56801 16.8078 2.6412C16.8679 2.71439 16.909 2.80125 16.9276 2.8941C16.9461 2.98694 16.9415 3.08293 16.9142 3.17358C16.8869 3.26423 16.8376 3.34676 16.7708 3.41388L14.9487 5.2366C14.8651 5.32027 14.7586 5.37726 14.6426 5.40035C14.5266 5.42345 14.4063 5.4116 14.2971 5.36633C14.2245 5.33625 14.1586 5.29217 14.1031 5.2366L12.2027 3.33141C12.089 3.21756 12.0251 3.06323 12.0251 2.90232C12.0251 2.7414 12.089 2.58707 12.2027 2.47323ZM11.7599 1.80332C11.8004 1.88618 11.814 1.97964 11.7988 2.07062C11.7836 2.1616 11.7403 2.24554 11.675 2.3107L8.76104 5.22466C8.64897 5.3367 8.49699 5.39963 8.33852 5.39963C8.18005 5.39963 8.02807 5.3367 7.916 5.22466L6.42975 3.73837C6.3651 3.6741 6.31659 3.59544 6.28819 3.50882C6.25979 3.42219 6.25231 3.33008 6.26636 3.24001C6.28041 3.14994 6.31559 3.06448 6.36902 2.99062C6.42245 2.91676 6.49262 2.85661 6.57377 2.81508C8.05822 2.06617 9.68326 1.637 11.3439 1.5553C11.4292 1.55079 11.5139 1.57144 11.5875 1.61469C11.6612 1.65794 11.7205 1.72187 11.758 1.79854L11.7599 1.80332ZM5.97201 20.8671H3.00667C2.85477 20.8671 2.70507 20.8308 2.56997 20.7614C2.43487 20.692 2.31825 20.5914 2.22976 20.4679C1.67507 19.7009 1.21365 18.8705 0.855254 17.9944C0.826199 17.9225 0.817051 17.844 0.828772 17.7673C0.840493 17.6906 0.87265 17.6185 0.921865 17.5586C0.971081 17.4986 1.03554 17.453 1.10847 17.4265C1.1814 17.4 1.26011 17.3937 1.33633 17.4082C2.46349 17.6162 3.6073 17.7208 4.7535 17.7207C5.14313 17.7207 5.52979 17.7087 5.91345 17.6849C5.99721 17.6795 6.08118 17.6913 6.16017 17.7196C6.23917 17.748 6.31151 17.7922 6.37273 17.8496C6.43395 17.907 6.48274 17.9764 6.51609 18.0534C6.54944 18.1304 6.56665 18.2135 6.56664 18.2974V20.2695C6.56666 20.4275 6.50411 20.5791 6.39268 20.6911C6.28124 20.8031 6.12999 20.8664 5.97201 20.8671ZM20.1952 9.60692V15.6679C20.1952 15.8264 20.2581 15.9784 20.3702 16.0905C20.4257 16.146 20.4916 16.19 20.5641 16.22C20.6366 16.2501 20.7143 16.2655 20.7928 16.2655H23.0637C23.183 16.2653 23.2998 16.2315 23.4008 16.1681H23.405C23.4775 16.1224 23.5399 16.0625 23.5885 15.9919C23.6371 15.9213 23.6708 15.8416 23.6876 15.7575C23.6984 15.7032 23.7067 15.6613 23.7085 15.6536C24.2388 12.7856 23.706 9.82276 22.2097 7.31926C22.1557 7.23009 22.0785 7.15719 21.9864 7.1083C21.8943 7.05942 21.7907 7.03635 21.6866 7.04156C21.5825 7.04677 21.4817 7.08005 21.3949 7.13789C21.3081 7.19572 21.2386 7.27595 21.1938 7.37007C20.9578 7.85726 20.6998 8.33345 20.4205 8.79715C20.2733 9.04165 20.1954 9.32156 20.1952 9.60692ZM22.7434 16.7436H20.7808C20.7039 16.7436 20.6278 16.7587 20.5567 16.7882C20.4856 16.8176 20.4211 16.8607 20.3667 16.9151C20.2569 17.025 20.1952 17.1739 20.1952 17.3293V20.2695C20.1952 20.348 20.2106 20.4257 20.2407 20.4982C20.2707 20.5707 20.3147 20.6366 20.3702 20.6921C20.4257 20.7476 20.4916 20.7916 20.5641 20.8216C20.6366 20.8517 20.7143 20.8671 20.7928 20.8671H21.0014C21.1131 20.8673 21.2233 20.8413 21.3232 20.7913C21.4231 20.7413 21.51 20.6686 21.5768 20.5791C22.2842 19.6234 22.8452 18.5675 23.2412 17.4464C23.2725 17.358 23.2794 17.2628 23.2612 17.1708C23.243 17.0788 23.2004 16.9934 23.1378 16.9235L23.133 16.9175C23.0839 16.8628 23.0238 16.819 22.9567 16.7891C22.8896 16.7591 22.8169 16.7436 22.7434 16.7436ZM19.5796 21.405H16.4302C16.3517 21.405 16.274 21.4204 16.2015 21.4505C16.129 21.4805 16.0631 21.5245 16.0076 21.58C15.9521 21.6355 15.9081 21.7014 15.8781 21.7739C15.8481 21.8464 15.8326 21.9241 15.8326 22.0026V23.9526C15.8324 24.0957 15.8855 24.2337 15.9816 24.3396C16.0777 24.4456 16.2099 24.512 16.3523 24.5257C16.4467 24.5348 16.5418 24.5204 16.6292 24.4839C17.8443 23.9677 18.9656 23.2541 19.9478 22.3719C20.0105 22.3162 20.0597 22.2469 20.0917 22.1693C20.1237 22.0918 20.1376 22.0079 20.1324 21.9242C20.1272 21.8404 20.1031 21.759 20.0618 21.6859C20.0204 21.6129 19.9631 21.5502 19.894 21.5026C19.8015 21.4389 19.6919 21.4049 19.5796 21.405ZM10.8037 25.2584L10.8097 25.2542C10.8661 25.2141 10.9121 25.161 10.9438 25.0994C10.9755 25.0379 10.992 24.9696 10.992 24.9004V21.9428C10.992 21.7843 10.929 21.6323 10.8169 21.5203C10.7048 21.4082 10.5528 21.3452 10.3943 21.3452H4.17917C4.08892 21.3452 4.00031 21.3694 3.92255 21.4152C3.84479 21.461 3.78071 21.5268 3.73696 21.6058C3.68256 21.7039 3.66243 21.8173 3.67974 21.9282C3.69706 22.039 3.75084 22.1409 3.83257 22.2177C5.66908 23.9362 8.00245 25.0293 10.4983 25.3403C10.6068 25.3522 10.7158 25.323 10.8037 25.2584Z" fill="#1A1A1A"/>
</g>
<path d="M28.0605 9.13467H32.1539V20.86H34.6023V9.13467H38.6958V6.87758H28.0605V9.13467ZM42.8435 21.1087C45.3112 21.1087 47.0326 19.8654 47.4345 17.7996H45.2728C45.0052 18.6986 44.1634 19.1959 42.882 19.1959C41.3326 19.1959 40.4527 18.3543 40.2807 16.6902L47.3961 16.671V15.9633C47.3961 13.0176 45.5982 11.1239 42.767 11.1239C39.9937 11.1239 38.0618 13.1707 38.0618 16.1355C38.0618 19.062 40.0318 21.1087 42.8435 21.1087ZM42.7864 13.0368C44.1828 13.0368 45.0817 13.8975 45.0817 15.1982H40.3378C40.5676 13.7827 41.4091 13.0368 42.7864 13.0368ZM55.1935 11.3726C54.8107 11.277 54.4857 11.2387 54.1606 11.2387C52.8982 11.2387 51.999 11.8699 51.5974 12.8072L51.4635 11.43H49.2637V20.86H51.5974V16.2694C51.5974 14.4331 52.6494 13.5341 54.3327 13.5341H55.1935V11.3726ZM62.7028 11.3726C62.3199 11.277 61.9949 11.2387 61.6699 11.2387C60.4071 11.2387 59.5082 11.8699 59.1066 12.8072L58.9727 11.43H56.7729V20.86H59.1066V16.2694C59.1066 14.4331 60.1586 13.5341 61.8419 13.5341H62.7028V11.3726ZM66.7204 21.1087C68.1933 21.1087 69.4747 20.4392 69.8766 19.4637L70.0486 20.86H72.0954V15.1217C72.0954 12.5012 70.5267 11.1239 67.9828 11.1239C65.4196 11.1239 63.7363 12.4629 63.7363 14.5096H65.7256C65.7256 13.5149 66.4909 12.9411 67.8679 12.9411C69.0538 12.9411 69.8192 13.4576 69.8192 14.7391V14.9495L66.988 15.1599C64.7502 15.3321 63.4878 16.4224 63.4878 18.163C63.4878 19.9419 64.7121 21.1087 66.7204 21.1087ZM67.4854 19.3489C66.4335 19.3489 65.8596 18.9281 65.8596 18.0674C65.8596 17.3023 66.4144 16.8241 67.8679 16.6902L69.8382 16.5371V17.0345C69.8382 18.4882 68.9202 19.3489 67.4854 19.3489ZM78.2709 21.1087C79.7053 21.1087 80.9297 20.4775 81.5032 19.3872L81.6562 20.86H83.7985V6.62891H81.4842V12.6159C80.8912 11.6787 79.7244 11.1239 78.4045 11.1239C75.5547 11.1239 73.833 13.228 73.833 16.1737C73.833 19.1003 75.5353 21.1087 78.2709 21.1087ZM78.7873 18.9664C77.1612 18.9664 76.1667 17.7805 76.1667 16.0972C76.1667 14.4139 77.1612 13.2089 78.7873 13.2089C80.4132 13.2089 81.4652 14.3948 81.4652 16.0972C81.4652 17.7996 80.4132 18.9664 78.7873 18.9664ZM85.6759 16.1163C85.6759 19.062 87.7991 21.0896 90.7258 21.0896C93.6521 21.0896 95.7754 19.062 95.7754 16.1163C95.7754 13.1706 93.6521 11.1431 90.7258 11.1431C87.7991 11.1431 85.6759 13.1706 85.6759 16.1163ZM88.0096 16.1163C88.0096 14.3948 89.119 13.228 90.7258 13.228C92.3323 13.228 93.4417 14.3948 93.4417 16.1163C93.4417 17.8378 92.3323 19.0047 90.7258 19.0047C89.119 19.0047 88.0096 17.8378 88.0096 16.1163ZM100.745 20.86V13.3619H102.582V11.4109H100.745V8.46519H98.4116V11.4109H96.5946V13.3619H98.4116V20.86H100.745Z" fill="#1A1A1A"/>
</svg>