<svg xmlns="http://www.w3.org/2000/svg" fill="none" viewBox="0 0 32 32" height="32" width="32">
<rect fill="#1A1A1A" rx="6" height="32" width="32"></rect>
<g clip-path="url(#clip0_6683_6394)">
<path fill="white" d="M27.3258 10.0093H27.1152C26.0066 10.0076 25.1069 10.9055 25.1069 12.0141V16.4978C25.1069 17.3931 24.367 18.1184 23.4862 18.1184C22.963 18.1184 22.4407 17.8551 22.1307 17.413L17.5512 10.8727C17.1713 10.3296 16.5532 10.0059 15.884 10.0059C14.8401 10.0059 13.9007 10.8934 13.9007 11.9891V16.4987C13.9007 17.394 13.1668 18.1193 12.2801 18.1193C11.7552 18.1193 11.2337 17.8559 10.9237 17.4139L5.79941 10.0957C5.68372 9.93074 5.42383 10.0119 5.42383 10.2139V14.1243C5.42383 14.322 5.48427 14.5137 5.59738 14.676L10.6397 21.8777C10.9375 22.3033 11.377 22.6193 11.8838 22.7342C13.1522 23.0225 14.3195 22.0461 14.3195 20.8019V16.2949C14.3195 15.3995 15.0448 14.6743 15.9401 14.6743H15.9427C16.4823 14.6743 16.9883 14.9376 17.2982 15.3797L21.8777 21.9191C22.2584 22.463 22.8448 22.786 23.5441 22.786C24.6113 22.786 25.5256 21.8975 25.5256 20.8027V16.294C25.5256 15.3987 26.2508 14.6734 27.1462 14.6734H27.3249C27.4372 14.6734 27.5278 14.5828 27.5278 14.4705V10.2114C27.5278 10.0991 27.4372 10.0084 27.3249 10.0084L27.3258 10.0093ZM53.6155 13.3835H52.4949C52.3809 13.3835 52.2885 13.4759 52.2885 13.5899V22.5779C52.2885 22.6918 52.3809 22.7843 52.4949 22.7843H53.6155C53.7295 22.7843 53.8219 22.6918 53.8219 22.5779V13.5899C53.8219 13.4759 53.7295 13.3835 53.6155 13.3835ZM52.4577 10.0067H53.6519C53.7657 10.0067 53.8582 10.0991 53.8582 10.2131V11.6809C53.8582 11.7948 53.7657 11.8872 53.6519 11.8872H52.4577C52.3437 11.8872 52.2514 11.7948 52.2514 11.6809V10.2131C52.2514 10.0991 52.3437 10.0067 52.4577 10.0067ZM60.3234 13.1279C59.0638 13.1279 58.1512 13.5657 57.5667 14.2055C57.3793 14.3954 57.0555 14.2624 57.0555 13.9957V13.5899C57.0555 13.4759 56.9631 13.3835 56.8491 13.3835H55.7474C55.6335 13.3835 55.5411 13.4759 55.5411 13.5899V22.5779C55.5411 22.6918 55.6335 22.7843 55.7474 22.7843H56.85C56.964 22.7843 57.0563 22.6918 57.0563 22.5779V16.8881C57.0563 14.916 57.4397 14.4783 59.5396 14.4783C61.6393 14.4783 61.9855 14.8254 61.9855 16.7965V22.577C61.9855 22.691 62.0779 22.7833 62.1919 22.7833H63.3126C63.4265 22.7833 63.519 22.691 63.519 22.577V16.3761C63.519 14.1303 62.2412 13.1262 60.3244 13.1262V13.1279H60.3234ZM71.7722 14.3332C71.9596 14.5232 72.2834 14.3902 72.2834 14.1234V10.2139C72.2834 10.1 72.3758 10.0076 72.4897 10.0076H73.5923C73.7063 10.0076 73.7987 10.1 73.7987 10.2139V22.5787C73.7987 22.6927 73.7063 22.7851 73.5923 22.7851H72.4897C72.3758 22.7851 72.2834 22.6927 72.2834 22.5787V22.0452C72.2946 21.7723 71.9639 21.6411 71.7722 21.8353C71.243 22.4924 70.2207 23.0398 68.8514 23.0398C66.4425 23.0398 64.8719 21.3242 64.8719 18.1296C64.8719 14.7529 66.6238 13.1279 68.9058 13.1279C70.2751 13.1279 71.2611 13.6762 71.7722 14.3332ZM66.5322 18.0925C66.5322 21.1775 66.9156 21.6342 69.4169 21.6342C71.9 21.6342 72.2834 21.1775 72.2834 18.0925C72.2834 15.0076 71.9182 14.5327 69.4169 14.5327C66.9156 14.5327 66.5322 15.0076 66.5322 18.0925ZM80.2069 17.5097L78.4007 17.1997C77.0675 16.9623 76.8301 16.5608 76.8301 15.8666C76.8482 14.9169 77.2134 14.4429 78.9843 14.4429C80.6429 14.4429 81.1739 14.9333 81.2879 15.9918C81.2991 16.0963 81.3872 16.1766 81.4925 16.1766H82.5881C82.7056 16.1766 82.8014 16.0782 82.7945 15.9599C82.6883 14.1424 81.0246 13.1271 79.0396 13.1271C76.812 13.1271 75.3339 14.3134 75.3339 16.0117C75.3339 17.5632 76.5392 18.2393 77.981 18.513L79.9712 18.8782C81.0669 19.0794 81.4321 19.4446 81.4321 20.1379C81.4321 21.2517 81.0487 21.7266 79.1682 21.7266C77.2877 21.7266 76.7679 21.1843 76.6471 20.0853C76.6358 19.9807 76.5478 19.9013 76.4424 19.9013H75.3399C75.2242 19.9013 75.1301 19.9972 75.1327 20.1129C75.1854 22.071 76.9605 23.0415 79.0758 23.0415C81.376 23.0415 82.9637 21.8553 82.9637 20.0654C82.9637 18.4957 81.7584 17.7834 80.2069 17.5097ZM88.1864 21.6903C90.231 21.6903 90.6143 21.2526 90.6143 19.2805V13.5924C90.6143 13.4785 90.7066 13.3861 90.8206 13.3861H91.9413C92.0553 13.3861 92.1477 13.4785 92.1477 13.5924V22.5805C92.1477 22.6944 92.0553 22.7869 91.9413 22.7869H90.8206C90.7066 22.7869 90.6143 22.6944 90.6143 22.5805V22.1885C90.61 21.9096 90.3207 21.7706 90.1213 21.9657C89.5376 22.6046 88.625 23.0424 87.4016 23.0424C85.521 23.0424 84.2432 22.0382 84.2432 19.7926V13.5916C84.2432 13.4776 84.3356 13.3852 84.4496 13.3852H85.5703C85.6843 13.3852 85.7766 13.4776 85.7766 13.5916V19.3721C85.7766 21.3432 86.1418 21.6903 88.1864 21.6903ZM101.115 13.3835V12.1782C101.115 11.7042 101.499 11.32 101.974 11.32H102.808C102.921 11.32 103.013 11.2276 103.013 11.1136V10.2122C103.013 10.0982 102.921 10.0059 102.808 10.0059H102.229C100.586 10.0059 99.5816 10.9185 99.5816 12.489V13.3835H98.3668C97.2901 13.3852 96.4449 13.5329 95.8811 14.2055C95.6739 14.4015 95.3881 14.2547 95.3881 13.9698V13.5907C95.3881 13.4767 95.2957 13.3844 95.1817 13.3844H94.0611C93.9471 13.3844 93.8546 13.4767 93.8546 13.5907V22.5787C93.8546 22.6927 93.9471 22.7851 94.0611 22.7851H95.1817C95.2957 22.7851 95.3881 22.6927 95.3881 22.5787V16.9442C95.3881 15.0818 95.863 14.6441 97.9074 14.6441H99.5816V22.5796C99.5816 22.6936 99.674 22.786 99.788 22.786H100.909C101.022 22.786 101.115 22.6936 101.115 22.5796V14.6441H102.809C102.923 14.6441 103.015 14.5517 103.015 14.4377V13.5916C103.015 13.4776 102.923 13.3852 102.809 13.3852H101.115V13.3835ZM46.0488 20.4401C46.0884 20.6051 46.2361 20.7216 46.4053 20.7216H46.4062C46.5746 20.7216 46.7213 20.6068 46.7619 20.4435L49.3323 10.163C49.3555 10.0706 49.4385 10.0059 49.5335 10.0059H50.8165C50.9538 10.0059 51.0539 10.1354 51.0194 10.2683L47.7859 22.6349C47.7626 22.7221 47.684 22.7833 47.5934 22.7833H45.3044C45.2121 22.7833 45.1318 22.7203 45.1085 22.6314L42.4224 12.287C42.381 12.1255 42.2351 12.0124 42.0676 12.0124H42.0443C41.8776 12.0124 41.7317 12.1255 41.6895 12.287L39.0043 22.6314C38.9809 22.7212 38.9006 22.7833 38.8082 22.7833H36.5193C36.4287 22.7833 36.3493 22.7221 36.3268 22.6349L33.0934 10.2683C33.0588 10.1354 33.159 10.0059 33.2963 10.0059H34.5793C34.6742 10.0059 34.7571 10.0706 34.7805 10.163L37.35 20.4435C37.3905 20.6068 37.5365 20.7216 37.7056 20.7216C37.8749 20.7216 38.0225 20.6051 38.0623 20.4401L40.5325 10.1647C40.5549 10.0715 40.6378 10.0059 40.7337 10.0059H43.3783C43.474 10.0059 43.5569 10.0715 43.5794 10.1647L46.0488 20.4401Z" clip-rule="evenodd" fill-rule="evenodd"></path>
</g>
<defs>
<clipPath id="clip0_6683_6394">
<rect transform="translate(5.42188 10)" fill="white" height="13" width="22.1549"></rect>
</clipPath>
</defs>
</svg>
