<svg width="32" height="32" viewBox="0 0 32 32" fill="none" xmlns="http://www.w3.org/2000/svg">
<rect width="32" height="32" rx="6" fill="#1A1A1A"></rect>
<g clip-path="url(#clip0_5182_14823)">
<path fill-rule="evenodd" clip-rule="evenodd" d="M8.47619 10.0962C8.38863 10.0087 8.33749 9.89137 8.33309 9.76772C8.32868 9.64408 8.37133 9.52336 8.45244 9.42992C8.97695 8.82641 9.57156 8.2876 10.2237 7.82492C10.3181 7.75784 10.4332 7.72631 10.5486 7.73591C10.664 7.74552 10.7723 7.79565 10.8543 7.87742L14.4399 11.4655C14.5041 11.5302 14.5519 11.6093 14.5791 11.6963C14.6063 11.7833 14.6121 11.8755 14.5962 11.9652C14.5803 12.0549 14.543 12.1395 14.4875 12.2118C14.432 12.2841 14.36 12.342 14.2774 12.3805C13.7023 12.656 13.201 13.0643 12.8149 13.5718C12.769 13.6347 12.7097 13.6867 12.6414 13.7241C12.573 13.7615 12.4973 13.7833 12.4195 13.7881C12.3417 13.7929 12.2639 13.7804 12.1915 13.7517C12.1191 13.723 12.0539 13.6786 12.0006 13.6218L8.47619 10.0962ZM12.1843 14.7887C12.214 14.6967 12.2179 14.5984 12.1955 14.5043C12.1732 14.4103 12.1254 14.3243 12.0574 14.2555L10.4574 12.6543C10.411 12.6078 10.3559 12.5709 10.2952 12.5458C10.2345 12.5206 10.1694 12.5077 10.1037 12.5077C10.038 12.5077 9.97292 12.5206 9.91222 12.5458C9.85152 12.5709 9.79638 12.6078 9.74994 12.6543L8.15994 14.2455C8.06616 14.3395 8.0135 14.4669 8.0135 14.5996C8.0135 14.7324 8.06616 14.8597 8.15994 14.9537L11.9999 18.7955C12.0474 18.8432 12.1056 18.8788 12.1696 18.8994C12.2337 18.9201 12.3017 18.9252 12.3681 18.9143C12.6987 18.8599 12.8256 18.4518 12.6431 18.1705C12.3231 17.6751 12.1161 17.1152 12.0369 16.5307C11.9577 15.9462 12.0083 15.3514 12.1849 14.7887H12.1843ZM13.3368 19.1724C13.0087 19.2449 12.6774 19.3068 12.3418 19.3587C12.2319 19.3751 12.1315 19.4305 12.0589 19.5147C11.9863 19.5988 11.9463 19.7063 11.9462 19.8174V21.668C11.9464 21.8006 11.9991 21.9277 12.0928 22.0214C12.1866 22.1152 12.3136 22.1679 12.4462 22.168H14.6962C14.8288 22.168 14.956 22.1154 15.0497 22.0216C15.1435 21.9278 15.1962 21.8007 15.1962 21.668V20.3043C15.1957 20.1926 15.1598 20.084 15.0935 19.9941C15.0272 19.9042 14.934 19.8377 14.8274 19.8043C14.428 19.6793 14.0509 19.492 13.7099 19.2493C13.6399 19.2002 13.5578 19.171 13.4724 19.1649C13.4271 19.1607 13.3814 19.1632 13.3368 19.1724ZM16.0162 19.9962C15.9075 19.9938 15.8022 20.0346 15.7234 20.1095C15.6446 20.1844 15.5987 20.2875 15.5956 20.3962V25.6674C15.5956 25.7555 15.6305 25.84 15.6927 25.9023C15.7549 25.9647 15.8394 25.9998 15.9274 25.9999H16.0562C16.8751 25.9976 17.6906 25.8945 18.4843 25.693C18.5886 25.6657 18.6807 25.6043 18.7461 25.5186C18.8114 25.4328 18.8462 25.3277 18.8449 25.2199V20.0324C18.8452 19.9272 18.818 19.8237 18.7661 19.7321C18.7142 19.6405 18.6393 19.564 18.5489 19.5102C18.4585 19.4563 18.3556 19.4269 18.2503 19.4249C18.1451 19.4229 18.0411 19.4483 17.9487 19.4987C17.3571 19.8261 16.6924 19.9973 16.0162 19.9962ZM19.3306 18.2124C19.2746 18.2969 19.2448 18.3961 19.2449 18.4974V21.7174C19.2449 21.85 19.2976 21.9772 19.3914 22.071C19.4852 22.1647 19.6123 22.2174 19.7449 22.2174H21.9918C22.0579 22.2174 22.1233 22.2044 22.1843 22.1791C22.2453 22.1538 22.3007 22.1167 22.3474 22.07C22.394 22.0233 22.431 21.9678 22.4562 21.9068C22.4815 21.8457 22.4944 21.7803 22.4943 21.7143V14.3287C22.4942 14.243 22.4702 14.1592 22.4252 14.0863C22.3802 14.0135 22.3158 13.9546 22.2393 13.9162C22.1464 13.8701 22.0406 13.8567 21.9391 13.8781C21.8376 13.8996 21.7463 13.9546 21.6799 14.0343C21.2146 14.5907 20.7104 15.1135 20.1712 15.5987C20.1185 15.6474 20.0765 15.7065 20.048 15.7724C20.0194 15.8383 20.005 15.9094 20.0056 15.9812C20.0072 16.7755 19.7722 17.5522 19.3306 18.2124ZM19.6674 14.3974C19.8237 14.7562 20.2987 14.9099 20.5724 14.6312C20.8323 14.3662 21.0825 14.0918 21.3224 13.8087C21.4008 13.7153 21.4413 13.596 21.4359 13.4742C21.4305 13.3524 21.3795 13.2371 21.2931 13.1512L15.9162 7.76992C15.8224 7.67622 15.6953 7.62359 15.5628 7.62359C15.4302 7.62359 15.3031 7.67622 15.2093 7.76992L13.6181 9.36117C13.5716 9.40761 13.5347 9.46275 13.5095 9.52345C13.4844 9.58415 13.4714 9.64921 13.4714 9.71492C13.4714 9.78063 13.4844 9.84569 13.5095 9.90639C13.5347 9.96709 13.5716 10.0222 13.6181 10.0687L15.3943 11.8462C15.4449 11.8968 15.5055 11.9363 15.5722 11.9621C15.639 11.9879 15.7103 11.9995 15.7818 11.9962C16.5972 11.9516 17.4067 12.1579 18.1014 12.5872C18.796 13.0165 19.3426 13.6482 19.6674 14.3974ZM6.60681 13.4005C6.54296 13.3376 6.49777 13.2582 6.47626 13.1712C6.45475 13.0842 6.45775 12.9929 6.48494 12.9074C6.74777 12.0958 7.1139 11.3213 7.57431 10.603C7.61353 10.5423 7.66581 10.4911 7.72734 10.4532C7.78886 10.4152 7.85809 10.3915 7.92995 10.3837C8.00182 10.3759 8.07452 10.3843 8.14274 10.4082C8.21097 10.4321 8.273 10.4709 8.32431 10.5218L9.45931 11.658C9.5058 11.7045 9.54268 11.7596 9.56784 11.8203C9.59301 11.881 9.60596 11.9461 9.60596 12.0118C9.60596 12.0775 9.59301 12.1426 9.56784 12.2033C9.54268 12.264 9.5058 12.3191 9.45931 12.3655L7.86994 13.9549C7.77621 14.0484 7.64921 14.1009 7.51681 14.1009C7.38442 14.1009 7.25742 14.0484 7.16369 13.9549L6.60681 13.4005ZM6.21619 18.0724C5.97079 16.9041 5.93398 15.7017 6.10744 14.5205C6.16431 14.1337 6.63244 13.9993 6.90744 14.2755L9.75744 17.1274L9.75994 17.1299C9.87744 17.2487 10.0062 17.3799 10.1249 17.4987L10.9131 18.2874C11.2081 18.5824 11.0318 19.0824 10.6131 19.1024C9.40058 19.1626 8.18528 19.0757 6.99369 18.8437C6.39619 18.7149 6.29619 18.4155 6.21619 18.0724ZM20.8724 7.44555C21.0324 7.4143 21.1981 7.44492 21.3362 7.5318C22.1849 8.0693 22.9487 8.7318 23.6018 9.49617C23.6593 9.5638 23.6968 9.64615 23.7101 9.73393C23.7233 9.82171 23.7118 9.91145 23.6768 9.99305C23.2755 10.9352 22.7785 11.8336 22.1937 12.6743C22.1526 12.7324 22.0992 12.7807 22.0373 12.8159C21.9754 12.8511 21.9065 12.8722 21.8356 12.8778C21.7646 12.8834 21.6933 12.8734 21.6266 12.8483C21.56 12.8233 21.4997 12.784 21.4499 12.733L18.7981 10.0768C18.7514 10.0303 18.7143 9.97512 18.6891 9.9143C18.6638 9.85349 18.6508 9.78828 18.6508 9.72242C18.6508 9.65657 18.6638 9.59136 18.6891 9.53054C18.7143 9.46973 18.7514 9.41451 18.7981 9.36805L20.5449 7.6193C20.6337 7.5318 20.7462 7.47117 20.8687 7.4468L20.8724 7.44555ZM16.2087 6.76867L16.6874 6.28992C16.7771 6.20036 16.8881 6.13517 17.0099 6.10055H17.0143C17.1118 6.07242 17.2137 6.0643 17.3143 6.07617C18.1944 6.1921 19.055 6.42543 19.8731 6.76992C19.9462 6.80036 20.0108 6.84834 20.061 6.90963C20.1112 6.97093 20.1455 7.04364 20.161 7.12136C20.1764 7.19907 20.1725 7.27939 20.1495 7.35523C20.1266 7.43106 20.0853 7.50008 20.0293 7.55617L18.5056 9.08242C18.4591 9.12891 18.404 9.16579 18.3433 9.19095C18.2826 9.21611 18.2175 9.22907 18.1518 9.22907C18.0861 9.22907 18.021 9.21611 17.9603 9.19095C17.8996 9.16579 17.8445 9.12891 17.7981 9.08242L16.2087 7.48742C16.1135 7.39204 16.06 7.2628 16.06 7.12805C16.06 6.9933 16.1135 6.86405 16.2087 6.76867ZM15.8381 6.20805C15.872 6.27748 15.8833 6.35576 15.8706 6.43197C15.8578 6.50817 15.8215 6.57847 15.7668 6.63305L13.3293 9.07242C13.2356 9.16593 13.1086 9.21844 12.9762 9.21844C12.8438 9.21844 12.7168 9.16593 12.6231 9.07242L11.3793 7.82805C11.3251 7.77426 11.2845 7.70839 11.2607 7.63584C11.2368 7.5633 11.2306 7.48614 11.2423 7.4107C11.2541 7.33526 11.2836 7.26369 11.3284 7.20184C11.3731 7.14 11.4319 7.08965 11.4999 7.05492C12.7415 6.42812 14.1008 6.06892 15.4899 6.00055C15.5614 5.99662 15.6324 6.01386 15.6941 6.05011C15.7558 6.08635 15.8054 6.13998 15.8368 6.2043L15.8381 6.20805ZM10.9962 22.1674H8.51556C8.38848 22.1675 8.26321 22.1373 8.15016 22.0792C8.03711 22.0212 7.93955 21.937 7.86556 21.8337C7.40142 21.1913 7.01537 20.496 6.71556 19.7624C6.69132 19.7022 6.68374 19.6365 6.69361 19.5723C6.70349 19.5081 6.73045 19.4478 6.77168 19.3976C6.81291 19.3474 6.86688 19.3093 6.92794 19.2871C6.98899 19.265 7.05488 19.2597 7.11869 19.2718C8.38071 19.5049 9.66653 19.5826 10.9474 19.503C11.0176 19.4983 11.088 19.5081 11.1542 19.5318C11.2204 19.5555 11.281 19.5925 11.3323 19.6407C11.3835 19.6888 11.4243 19.747 11.4521 19.8116C11.4799 19.8762 11.494 19.9459 11.4937 20.0162V21.6674C11.4937 21.7996 11.4414 21.9264 11.3481 22.0201C11.2549 22.1138 11.1284 22.1668 10.9962 22.1674ZM22.8943 12.7412V17.8149C22.8945 17.9475 22.9472 18.0746 23.0409 18.1683C23.1347 18.262 23.2618 18.3148 23.3943 18.3149H25.2943C25.3938 18.3147 25.4913 18.2866 25.5756 18.2337H25.5793C25.64 18.1955 25.6923 18.1453 25.7329 18.0862C25.7735 18.0271 25.8017 17.9603 25.8156 17.8899L25.8331 17.8024C26.2768 15.4024 25.8312 12.9212 24.5793 10.8255C24.5342 10.7508 24.4697 10.6897 24.3926 10.6487C24.3155 10.6077 24.2288 10.5884 24.1416 10.5928C24.0544 10.5971 23.9701 10.625 23.8975 10.6735C23.8249 10.722 23.7668 10.7892 23.7293 10.868C23.5319 11.276 23.3161 11.6747 23.0824 12.063C22.9594 12.2678 22.8944 12.5023 22.8943 12.7412ZM25.0256 18.7155H23.3843C23.3199 18.7155 23.2561 18.7282 23.1967 18.7529C23.1372 18.7776 23.0831 18.8137 23.0376 18.8593C22.9921 18.9049 22.956 18.9589 22.9314 19.0185C22.9068 19.078 22.8942 19.1418 22.8943 19.2062V21.6674C22.8945 21.8 22.9472 21.9271 23.0409 22.0208C23.1347 22.1145 23.2618 22.1673 23.3943 22.1674H23.5687C23.6621 22.1676 23.7543 22.1459 23.8378 22.1041C23.9214 22.0624 23.994 22.0016 24.0499 21.9268C24.6419 21.1265 25.1112 20.2424 25.4424 19.3037C25.4685 19.2297 25.4742 19.15 25.4589 19.073C25.4437 18.996 25.408 18.9246 25.3556 18.8662L25.3518 18.8612C25.3108 18.8154 25.2606 18.7788 25.2045 18.7537C25.1484 18.7286 25.087 18.7156 25.0256 18.7155ZM22.3793 22.618H19.7449C19.6123 22.618 19.4852 22.6707 19.3914 22.7645C19.2976 22.8583 19.2449 22.9854 19.2449 23.118V24.7505C19.2448 24.8298 19.2643 24.9079 19.3016 24.9779C19.3389 25.0478 19.393 25.1074 19.4589 25.1515C19.5248 25.1955 19.6006 25.2226 19.6795 25.2303C19.7584 25.2379 19.838 25.226 19.9112 25.1955C20.9279 24.7632 21.8659 24.1655 22.6874 23.4268C22.7575 23.3643 22.8069 23.2821 22.8291 23.1909C22.8513 23.0997 22.8454 23.004 22.812 22.9163C22.7785 22.8286 22.7193 22.7531 22.642 22.6999C22.5648 22.6466 22.4732 22.6181 22.3793 22.618ZM15.0381 25.8437L15.0431 25.8405C15.0903 25.807 15.1288 25.7625 15.1554 25.711C15.1819 25.6594 15.1957 25.6023 15.1956 25.5443V23.068C15.1956 22.9354 15.1429 22.8083 15.0491 22.7145C14.9553 22.6207 14.8282 22.568 14.6956 22.568H9.49681C9.4123 22.5683 9.3298 22.5939 9.25995 22.6414C9.1901 22.689 9.13609 22.7564 9.10489 22.835C9.07369 22.9135 9.06672 22.9996 9.08489 23.0821C9.10305 23.1647 9.14552 23.2399 9.20681 23.298C10.7425 24.7366 12.6944 25.6518 14.7824 25.9124C14.8735 25.9226 14.965 25.898 15.0387 25.8437H15.0381Z" fill="white"></path>
</g>
<defs>
<clipPath id="clip0_5182_14823">
<rect width="20" height="20" fill="white" transform="translate(6 6)"></rect>
</clipPath>
</defs>
</svg>
