<svg xmlns="http://www.w3.org/2000/svg" class="w-[17px]" viewBox="0 0 17 18" fill="none"><path d="M15.7769 1.33008H2.14094C1.48894 1.33008 0.960938 1.82908 0.960938 2.44608V15.6951C0.960938 16.3121 1.48894 16.8141 2.14194 16.8141H15.7769C16.4299 16.8141 16.9609 16.3121 16.9609 15.6981V2.44608C16.9609 1.82908 16.4299 1.33008 15.7769 1.33008ZM5.70694 14.5251H3.33394V7.13308H5.70894V14.5251H5.70694ZM4.52094 6.12608C3.75894 6.12608 3.14294 5.53108 3.14294 4.79608C3.14294 4.06108 3.75894 3.46608 4.52094 3.46608C5.28094 3.46608 5.89594 4.06108 5.89594 4.79608C5.89594 5.52808 5.28094 6.12608 4.52094 6.12608ZM14.5959 14.5251H12.2249V10.9321C12.2249 10.0761 12.2089 8.97208 10.9899 8.97208C9.75594 8.97208 9.56794 9.90708 9.56794 10.8721V14.5251H7.19794V7.13308H9.47294V8.14308H9.50494C9.81994 7.56308 10.5949 6.94908 11.7489 6.94908C14.1519 6.94908 14.5949 8.47908 14.5949 10.4691V14.5251H14.5959Z" fill="black"></path></svg>