<svg class="h-6 w-auto md:h-[26px]" xmlns="http://www.w3.org/2000/svg" viewBox="0 0 114 26" fill="none"><path d="M26.383 13c0 1.707-.342 3.398-1.005 4.975a12.99 12.99 0 0 1-2.86 4.217 13.204 13.204 0 0 1-4.279 2.818c-1.6.654-3.315.99-5.048.99a13.29 13.29 0 0 1-9.327-3.808A12.905 12.905 0 0 1 0 13c0-3.448 1.39-6.754 3.864-9.192A13.29 13.29 0 0 1 13.19 0c1.733 0 3.448.336 5.048.99 1.6.653 3.055 1.61 4.28 2.818a12.989 12.989 0 0 1 2.86 4.217A12.837 12.837 0 0 1 26.381 13ZM19.14 9.226V7.261c0-.026-.01-.051-.029-.07a.1.1 0 0 0-.07-.028h-8.148c-.348 0-.681.112-.927.31-.246.2-.384.47-.384.751v.039c0 .281.138.551.384.75.246.2.58.311.927.311h8.148a.1.1 0 0 0 .07-.028.097.097 0 0 0 .03-.07Zm.003 5.136v-2.08a.056.056 0 0 0-.017-.04.058.058 0 0 0-.04-.016H5.345c-.392 0-.768.11-1.045.305-.277.195-.433.459-.433.735v.113c0 .276.156.54.433.735.277.195.653.305 1.045.305h13.74c.015 0 .03-.006.04-.017a.056.056 0 0 0 .017-.04Zm-.004 4.89.003-2.084c0-.01-.004-.02-.011-.026a.038.038 0 0 0-.027-.011l-5.25-.01c-.172 0-.341.028-.5.082a1.347 1.347 0 0 0-.422.233c-.12.1-.217.22-.283.35a.92.92 0 0 0-.099.413v.002c0 .286.137.56.38.763.245.202.576.316.92.317l5.251.009c.01 0 .02-.004.027-.011a.037.037 0 0 0 .011-.027ZM36.937 19.408a.04.04 0 0 1-.024.037.038.038 0 0 1-.015.003H34.53a.04.04 0 0 1-.029-.012.04.04 0 0 1-.011-.028l-.002-13.106a.04.04 0 0 1 .013-.03.044.044 0 0 1 .03-.01c2.139-.002 3.824-.001 5.057 0 2.738.004 5.092 1.224 5.067 4.254-.025 2.94-2.349 4.185-5.034 4.184h-2.63a.054.054 0 0 0-.038.016.053.053 0 0 0-.016.038v4.654ZM36.93 8.416l.016 4.143a.037.037 0 0 0 .023.034l.015.003 2.967-.01a2.334 2.334 0 0 0 1.544-.576c.41-.366.638-.861.636-1.377v-.327c-.001-.256-.059-.509-.17-.744a1.948 1.948 0 0 0-.476-.63 2.225 2.225 0 0 0-.712-.419 2.428 2.428 0 0 0-.838-.144l-2.967.01a.038.038 0 0 0-.035.023.037.037 0 0 0-.003.014ZM80.757 9.864v1.674a.087.087 0 0 1-.056.081.093.093 0 0 1-.034.007h-2.365a.054.054 0 0 0-.038.015.053.053 0 0 0-.015.037v7.702a.067.067 0 0 1-.069.067h-2.275a.077.077 0 0 1-.054-.021.073.073 0 0 1-.022-.052v-7.62a.128.128 0 0 0-.038-.09.132.132 0 0 0-.093-.038h-1.222a.077.077 0 0 1-.078-.078V9.86a.078.078 0 0 1 .077-.076h1.273a.077.077 0 0 0 .077-.076c.009-.566.02-.91.035-1.03.32-2.656 2.7-2.45 4.959-2.41.02 0 .04.009.054.023a.077.077 0 0 1 .023.055V8.02c0 .02-.008.04-.022.054a.08.08 0 0 1-.054.023c-.598.023-1.412-.084-1.986.115-.579.201-.617.962-.58 1.496 0 .02.01.04.024.053a.08.08 0 0 0 .056.022h2.342c.022 0 .042.008.057.023a.08.08 0 0 1 .024.057ZM52.45 18.036c-.303.44-.607.76-.914.958-.688.444-1.496.667-2.425.67-2.005.007-3.805-.915-3.494-3.216.218-1.61 1.68-2.218 3.188-2.523.895-.181 1.995-.393 3.298-.635a.083.083 0 0 0 .068-.079c.061-1.572-1.07-2.32-2.57-1.975-.79.182-1.158.676-1.385 1.386a.093.093 0 0 1-.094.066l-2.325-.117a.04.04 0 0 1-.036-.029.039.039 0 0 1-.001-.016c.482-2.593 2.838-3.394 5.216-3.172 2.306.214 3.56 1.636 3.61 3.897.017.737.02 1.966.009 3.687-.004.557.16.853.774.768a.098.098 0 0 1 .076.022.095.095 0 0 1 .033.07v1.576a.091.091 0 0 1-.078.09c-1.236.189-2.588.032-2.867-1.412a.045.045 0 0 0-.036-.037.046.046 0 0 0-.048.02Zm-.364-3.13c-1.11.22-1.971.392-2.582.517-.772.157-1.44.492-1.417 1.37.03 1.173 1.404 1.266 2.247 1.05 1.13-.291 1.744-1.047 1.841-2.268.022-.275.023-.477.003-.605a.076.076 0 0 0-.061-.063.079.079 0 0 0-.031 0ZM70.295 18.052a.045.045 0 0 0-.036-.036.046.046 0 0 0-.048.02c-.302.44-.607.76-.913.958-.688.444-1.497.666-2.425.668-2.005.008-3.806-.914-3.494-3.215.218-1.611 1.682-2.218 3.19-2.521.894-.182 1.994-.394 3.297-.636a.084.084 0 0 0 .068-.079c.062-1.572-1.07-2.32-2.57-1.975-.79.182-1.158.676-1.385 1.386a.092.092 0 0 1-.094.065l-2.325-.117a.04.04 0 0 1-.029-.014.038.038 0 0 1-.008-.031c.481-2.594 2.838-3.393 5.216-3.171 2.306.215 3.56 1.638 3.61 3.898.015.737.018 1.966.007 3.686-.003.557.161.853.775.769a.098.098 0 0 1 .076.022.094.094 0 0 1 .033.07l-.002 1.575a.091.091 0 0 1-.078.09c-1.236.189-2.586.032-2.865-1.412Zm-.447-3.146c-1.11.22-1.972.392-2.582.517-.772.157-1.44.492-1.418 1.37.03 1.173 1.405 1.266 2.247 1.05 1.131-.292 1.745-1.048 1.842-2.27.022-.274.022-.476.002-.604a.076.076 0 0 0-.06-.063.079.079 0 0 0-.031 0ZM86.373 9.312c3.12 0 4.94 2.223 4.94 5.179-.002 2.955-1.825 5.177-4.943 5.175-3.12 0-4.94-2.223-4.94-5.179.001-2.955 1.824-5.177 4.942-5.175Zm-2.445 5.178c-.001 1.53.565 3.25 2.443 3.252 1.878 0 2.445-1.72 2.445-3.251s-.566-3.253-2.444-3.253c-1.877 0-2.444 1.72-2.444 3.252ZM102.13 11.063l.209-.35c.525-.874 1.405-1.363 2.446-1.392 1.405-.04 2.391.607 2.959 1.94.002.005.006.01.011.013.005.003.01.005.016.005a.029.029 0 0 0 .016-.005.027.027 0 0 0 .011-.013c.501-1.263 1.426-1.91 2.774-1.944 2.256-.057 3.386 1.5 3.413 3.586.016 1.184.019 3.352.009 6.504a.04.04 0 0 1-.012.03.04.04 0 0 1-.028.012h-2.321a.046.046 0 0 1-.032-.014.049.049 0 0 1-.013-.033c-.004-2.37-.004-4.256-.002-5.66.003-1.152-.276-2.572-1.783-2.49-1.389.075-1.776 1.38-1.777 2.557-.003 3.484-.004 5.337-.003 5.558a.083.083 0 0 1-.024.058.086.086 0 0 1-.059.024h-2.061a.091.091 0 0 1-.064-.026.092.092 0 0 1-.026-.063c.007-3.604.004-5.584-.008-5.938-.047-1.28-.569-2.494-2.156-2.1-1.106.273-1.376 1.531-1.376 2.55.002 2.495.001 4.34-.004 5.533a.045.045 0 0 1-.003.016.041.041 0 0 1-.01.014.044.044 0 0 1-.031.012h-2.313a.053.053 0 0 1-.037-.015.051.051 0 0 1-.015-.036v-9.82c0-.012.005-.024.013-.033a.046.046 0 0 1 .033-.013h2.06a.08.08 0 0 1 .079.077l.046 1.44a.03.03 0 0 0 .008.02.03.03 0 0 0 .017.01.036.036 0 0 0 .022 0 .038.038 0 0 0 .016-.014ZM59.225 11.331a.032.032 0 0 0 .027.033c.008.002.016 0 .023-.003a.037.037 0 0 0 .017-.017l.158-.374c.595-1.402 1.644-1.478 3.061-1.437.022 0 .044.01.06.025a.083.083 0 0 1 .024.059v1.871a.077.077 0 0 1-.024.057.08.08 0 0 1-.059.022c-.779-.015-1.328.012-1.648.079-1.17.245-1.51 1.105-1.51 2.193.005 2.382.004 4.235-.002 5.56a.049.049 0 0 1-.015.035.05.05 0 0 1-.035.014h-2.31a.05.05 0 0 1-.036-.014.048.048 0 0 1-.015-.035l.002-9.82a.05.05 0 0 1 .014-.036.05.05 0 0 1 .035-.015h2.144a.09.09 0 0 1 .09.09l-.001 1.713ZM95.248 11.344l.158-.374c.594-1.401 1.642-1.477 3.06-1.437.022 0 .043.01.059.025a.083.083 0 0 1 .024.059v1.87a.077.077 0 0 1-.024.057.08.08 0 0 1-.058.023c-.78-.015-1.329.011-1.65.078-1.168.245-1.508 1.106-1.507 2.194.005 2.38.004 4.233-.002 5.557a.049.049 0 0 1-.015.035.05.05 0 0 1-.035.014h-2.31a.05.05 0 0 1-.035-.014.049.049 0 0 1-.015-.035V9.58a.05.05 0 0 1 .015-.035.05.05 0 0 1 .035-.015h2.142a.09.09 0 0 1 .09.09v1.712a.033.033 0 0 0 .028.033.037.037 0 0 0 .04-.02Z" fill="currentColor"></path></svg>